<?xml version="1.0" encoding="utf-8"?>
<!-- Generator: Adobe Illustrator 21.0.0, SVG Export Plug-In . SVG Version: 6.00 Build 0)  -->
<svg version="1.1" id="_x3F__x3F__x3F__x3F__1" xmlns="http://www.w3.org/2000/svg" xmlns:xlink="http://www.w3.org/1999/xlink"
	 x="0px" y="0px" viewBox="0 0 571.5 315.4" style="enable-background:new 0 0 571.5 315.4;" xml:space="preserve">
<style type="text/css">
	.st0{fill-rule:evenodd;clip-rule:evenodd;}
</style>
<path class="st0" fill="white" d="M90,256.6c-97.9-52.3-107.8-135.7-14.7-194V50C-29.6,111.9-23.6,208,85,266.1c36.8,19.7,83.5,34,135.8,40.5
	v-10.9C170.4,289.3,125.4,275.5,90,256.6L90,256.6z M27.8,156.1c0,59.4,82.2,109.6,193,123.9v5C107.1,270.3,22.6,218.1,22.6,156.1
	c0-31.5,21.8-60.4,58.2-83.2v5.7C47.6,100.1,27.8,127,27.8,156.1L27.8,156.1z M285.3,23.2c144.7,0,262.7,59.7,262.7,132.9
	c0,61.8-84.1,114-197.4,128.7v-5c110.3-14.4,192.1-64.5,192.1-123.7c0-70.5-115.7-127.9-257.5-127.9c-39.8,0-77.5,4.5-111.2,12.6v-5
	C208,27.7,245.6,23.2,285.3,23.2L285.3,23.2z M171.3,24V12.9C206.3,4.6,245.1,0,285.8,0C364,0,435,17,486.5,44.6
	c113.4,60.6,113.4,160.9,0,221.6c-36.8,19.7-83.5,34-135.8,40.5v-10.9c50.4-6.5,95.4-20.3,130.8-39.2c105.7-56.5,105.6-146,0-202.5
	C396.8,8.8,271.8-0.4,171.3,24L171.3,24z M233,277c7.9,0,5.9-2.4,5.9,29.6c0,6.2-2.2,5.5-6.8,5.5v1.8h21.8V312
	c-3.6,0.4-7.3-0.1-7.3-4.6v-36.9c-2.7,0-3.2,2.7-13.6,4.6V277L233,277z M264.8,294.2c-1.6,1.8-2.7,3.5-3.3,5.1
	c-4.6,12.7,7,17.2,13.7,12.2C284.5,304.7,269.7,297,264.8,294.2L264.8,294.2z M273.5,289.7c1.8-1,3.1-2.6,3.8-4.7
	c5.1-14-14.9-15.7-14.9-6.3C262.4,284.3,267.8,287.2,273.5,289.7L273.5,289.7z M270.3,271.1c-13.9,0-18.1,13.6-6.8,21.9
	c-11.2,5.9-10.5,22.3,7.2,22.3c13.2,0,19.8-16.1,4.6-24.6C286.4,287,284.8,271.1,270.3,271.1L270.3,271.1z M305.3,309.9
	c3.3-8.6,0.5-25.7-11.3-18C290.1,314.7,302.7,316.8,305.3,309.9L305.3,309.9z M311.3,270.6c-12.9,3.8-25.1,12.5-25.1,27.1
	c0,24.8,27.7,21.4,27.7,3.3c0-13.1-13.8-15.5-19.9-10.8c4.5-8.8,8.3-14.5,17.3-18.2V270.6L311.3,270.6z M334.9,278.8
	c-6.9,9.7-17.8,24.6-17.8,35h8.2c2.1-22.1,13.5-36.4,14.1-38.6V272h-21.4l-5,9.1l1.4,0.5l6.3-2.7H334.9L334.9,278.8z M125.8,61.2
	c0.4-0.9,0.9-1.8,1.5-2.6c0.3-0.4,1.4-1.7,2-2C129.7,58.2,127.7,60,125.8,61.2L125.8,61.2z M108.6,58.3l-4.7,0.4l0.1-0.1
	C106.4,57.5,107.4,56.9,108.6,58.3L108.6,58.3z M106.8,64.4l-0.9,2.7c-5.2,16.3-16,6.6-9.5-2.4L106.8,64.4L106.8,64.4z M96.9,57.1
	c-0.7,0.5-1.3,1.1-2,1.7c-17.1-3.7-8.8-20.9,6.6-20.9c6.9,0,13.8,5.2,6.1,11.3c-2.9,2.3-6.2,3-9.8,2.6c-5.4-0.7-2.8-1.6-6.8-1.6
	h-5.4l7,5.9l0.3,0.1C94.4,56.6,95.6,56.9,96.9,57.1L96.9,57.1z M138.2,19.6c-7.1-0.5-14.3-0.3-20.3,2.9c-13.7,7.5,0.9,16.7,15.2,2.2
	L138.2,19.6L138.2,19.6z M114.3,38c1.5,0.6,3.3,1,5.4,1c5.7,0,10.7-2.7,14.6-7c1.6-1.7,5-6.4,5-8.8v-3.5c2.5,0.2,4.9,0.5,7.3,0.7
	l-1.9,0.9l-0.1,0.1c-12.1,9.2-16.4,26.4-28.1,34.2c-1.1-1.6-2.6-2.7-4.3-3.2c2.5-2.9,4-6.9,3.4-10.9C115.2,40.2,114.8,39,114.3,38
	L114.3,38z M118.3,85.7c2-2.7,4-5.4,6-8.1c5.3-7.1,10.4-14.9,16.4-21.4c2.2-2.4,6.7-6.3,9.7-3c3,3.4,0.4,10.7-5.2,7.2
	c-2,0-8.3,10.4-9.6,12.3c-2.9,4.1-26.6,37.3-31.4,31.8l-0.9-1l4.7-10.1l8.3-26.1c-1.7-0.6-3-1.6-4.1-3.1c0.3,10.4-12,24.7-20.1,15
	c-3.6-4.3-3.3-10.7-0.8-15.6c-19.4-6.6-12.9-32.1,9.5-32.1c2.8,0,5.8,0.5,8.3,1.7c-3.5-7.2,2.3-18.7,21.3-19.3l34.1-1.2
	c1.4,0,3.2,0.2,3.6,2c1.1,4.7-10,6.2-12.8,6.2c-0.6,0-1.3,0-1.9,0c-0.1,1.4-0.7,1.3-1.6,1.8c-0.6,0.3-1.1,0.7-1.6,1.1
	c-7.1,5.6-11.5,19.4-18.8,28.2c4.6,1.9,3.8,12.5-7.3,15.4C122.6,73.9,120.8,79.9,118.3,85.7L118.3,85.7z M205.6,212.6
	c2.6,3.8-6.5,15.2-8.8,14.7c-0.1-0.1,0-0.5,0-0.7C196.8,223,203.8,210,205.6,212.6L205.6,212.6z M326,227.1
	c2.7-0.9,10.7-12.6,9.6-14.6c-0.1,0-0.3,0-0.3,0c-4,0-9.3,10.6-9.3,14.4C325.9,226.9,325.9,227,326,227.1L326,227.1z M295.6,200.3
	c5.8-7.5-7.2-11.6-7.2-2.4C288.4,202.2,293.1,203.6,295.6,200.3L295.6,200.3z M374,200.3l-2.6,5.2h-7.8
	c-2.4,4.1-10.4,17.2-11.8,21.6c4.1-2.6,13.9-17.8,16.5-19.1l0.3-0.2l8.8-0.7l-9.9,18.7c2.9-2.9,7.2-8.4,8.6-8.4
	c7.7,0-8.6,21.1-14.9,13.1c-1-1.3-1.4-2.7-1.4-4.3c-3.9,4.3-9.6,9-13.2,4.3c-1-1.3-1.4-2.8-1.4-4.4c-1.6,1.8-3.3,3.5-5.2,4.8
	c-3.9,2.8-7.4,2.1-8.4-1.9c-5.4,4.9-11.5,4.2-12.5-3c-3.6,4.1-9.6,9.3-12.8,4c-2.2-3.5-1.3-7.3,0.5-10.6c-3.7,4.5-7.6,9.7-8.8,11.4
	l-0.5,0.7l-9.6,1.1l2.2-3.7c1.4-2.4,7.2-11.1,9.5-15.6c-5.2,5.6-16.7,25.7-23.4,17.1c-1.3-1.6-1.6-3.5-1.3-5.5
	c-1.7,1.1-3.7,1.7-6,1.6c-2.9,3.2-6.8,5.9-11,5.9c-4.4,0-5.7-2.9-5.7-6.3c-3.8,4.3-9.4,9.1-12.5,3.9c-2-3.2-1.4-6.6,0-9.7
	c-3.3,4.2-6.7,8.8-7.8,10.4l-0.5,0.7l-9.4,1.1l8.4-14.9c-3.9,4.8-8.7,11.2-10.1,13.1l-0.5,0.7l-9.6,1.1l2.2-3.7
	c1.2-2,5.7-8.8,8.4-13.5c-1.9,2.2-4.1,4.9-4.7,5.6c-2.7,2.8-6.2,5.7-10.1,5.6c-6.2,6.9-15.5,8.3-16.1-1.2c-5,5.2-12.2,10.8-17.3,2.6
	c-5-8,2.3-25-3.8-25c-1.7,0-2.9-0.3-3.7-0.8c-1.8,3.7-3.8,7.4-6.2,10.9c-8.9,13.2-20.2,20-35.6,20c-33.4,0-29-43.9,1.9-43.9
	c24.9,0,24,33.7-2.6,33.7c-14.7,0-14.2-11.2-7.8-8.1c14.5,7.1,29-7.9,19.7-15.1c-9-7.1-28,1.1-28,14.1c0,14.8,23.8,14.5,32.2,8.6
	c6.7-4.7,11.9-13.6,16.1-20.8c3.7-6.4,7.3-12.8,11.6-18.7c-3.3,1.2-6.9,1.3-9.5-1.6c-3.4-3.8-1.3-7.8-2-9.3c-3,0-7,5.2-8.6,7.6
	c-1.5,2.1-7.2,13.6-10,12.4c-1-0.4-1.3-1.1-1.3-2.2c0-8.3,20.2-32.4,27.6-22.1c5,7-5,16.6,14.2,3.4c2-1.4,12-10.3,12.3-3.1
	c0.1,1.2,0.2,0.4-0.2,1.5c-0.8,2.1-3.8,3.1-5.6,4.1c-3.2,1.8-5.5,4.2-7.5,7.4c-3.1,5-5.5,10.3-8,15.6c0.1,0,0.1,0,0.2,0
	c12.1-0.3,21.3-31.1,41.1-31.1c15.6,0,7.8,20.9,0.7,12.9c-2.7-3-0.2-5.6-0.4-7.3c-0.2-0.1-0.7,0-0.9,0c-4.7,0-11.1,9.1-14,12.6
	c-5.4,6.6-11.2,12.9-18.9,16.3c9.8,7.7,2.1,23.6,3.9,26.2c1.4,1.9,11.6-9.7,12.5-10.9c11.2-13.8,24.2-8.7,18.4,4.5
	c3.6-2.6,6.2-8.2,9.8-11.1c1.8-1.5,4.4-2.4,6.5-1.1c1.5,0.9,2.1,2.4,2.2,4c2.9-3,6.9-6.2,9.7-3.9c1.2,1,1.7,2.4,1.8,3.9
	c0.6-0.6,1.2-1.2,1.8-1.8c2-1.9,5.4-3.9,7.9-2c4.4,3.3-0.4,11.8-2.7,15.1c-0.3,0.4-1,1.5-1.6,2.6c10.9-9.9,19.5-27.8,26.4-41.1
	l0.5-0.9l9.5-1.3l-1.9,3.7c-3.2,6-19.7,35.2-21.6,41.4c0.9-0.1,2.3-0.6,2.7-0.8c4-2.5,5.5-8.4,5.8-12.9c0.9-11.2,12.6-7.2,6.3,6.3
	c3.6-3.3,7.5-10.6,10-11.9l0.3-0.2l9-0.7l-2,3.5c-1.4,2.5-7.4,12-9,16c4-3.1,13-15.4,16.1-17.9c1.8-1.5,4.4-2.4,6.5-1.1
	c1.5,1,2.1,2.5,2.2,4.2c3.3-3.4,8.1-7.1,10.9-3c4,5.7-3.1,12.8-5.4,17.2c3-2.8,8-9.4,9.6-11.1c3.4-3.9,13-11.6,17.6-6.1l0.7-1.1
	l9.1-0.6l-2,3.5c-1.4,2.5-6.9,11.4-8.9,15.7c4.1-3.3,12.9-15.5,16.5-20.8h-2.8l2.8-5.3h3.3l4-7.1l9.1-0.8l-4.4,7.9h7.3
	c-0.4-0.6-0.6-1.4-0.6-2.3c0-9.1,12.9-5.1,7.2,2.4C378.6,202.9,375.4,202.6,374,200.3L374,200.3z M281.5,145.5c2.5-1,5-2.6,6.8-4.6
	c0.6-0.6,2.6-3.2,2.2-4.2c-1.1-0.4-4.5,3-5.2,3.7C283.8,141.9,282.6,143.6,281.5,145.5L281.5,145.5z M474.2,137.6
	c-3.2-4.2-13.4,11.9-13.4,17C460.8,160.5,478.5,143.3,474.2,137.6L474.2,137.6z M158.7,154.6c0-5.1,10.2-21.2,13.4-17
	C176.5,143.3,158.7,160.5,158.7,154.6L158.7,154.6z M182.8,149.9c3-2.6,5.7-5.9,8.2-8.9c-0.3,3.7-1.1,7.4-2.9,10.6
	c-0.4,0.7-1.7,2.5-2.8,3.5C186.3,152.2,184.8,150.4,182.8,149.9L182.8,149.9z M453,152.1c-4.7,5.2-13.2,13.1-17.7,6.6
	c-1-1.4-1.5-2.9-1.6-4.7c-0.2-3.5,1.6-6.9,3.5-9.7c0.5-0.8,2.8-3.6,4.6-5.8c-6.2,4.8-17.5,20.7-20.1,21.7l-0.1,0l-10.8,1.1l2.6-3.8
	c2.1-3.1,11.8-16.1,13.9-20.6c-5.5,2.7-23.9,32.3-32.9,22.1c-2-2.3-2.1-5-1.5-7.7c-2.7,2-5.7,3.1-9.6,2.8
	c-14.8,12.9-29.1,5.4-16.3-11.8c0.5-0.7,2-2.8,2.9-4.4c-0.4,0.3-0.8,0.6-1,0.7c-3.7,2.9-6.9,6.9-10.1,10.3
	c-4.3,4.7-14.8,17.4-21.2,10.1c-1.7-1.9-2.1-4.3-1.7-6.6c-5.3,5.5-13.3,12.1-17.4,6.2c-1-1.4-1.5-3-1.6-4.7
	c-0.2-3.5,1.6-6.9,3.5-9.7c0.5-0.7,2.4-3,4-5.1c-5.8,5-16.4,17.7-18.6,20.3l-0.5,0.6l-11.5,1.1l2.6-3.8c2.1-3.1,11.8-16.1,13.8-20.5
	c-5.8,3-25.7,34.9-37.1,20.8c-1.4-1.7-2.2-3.8-2.5-6c-4.9,5.5-13.3,13.3-18.7,6.6c-3.8-4.8-1.8-7-1-10.3c-1.6,0.4-3.4,0.5-4.6-0.3
	l-7.5,12.2l-10.6,1.2l4.3-6.7c-4,4-10.6,10-14.8,4c-6-8.7,4.7-16.9,7.6-21.3c-5.1,3.4-17.3,20.6-20.8,22.6l-0.3,0.2l-10.2,1.1
	l6.1-9.5l-7.5,7.2l-0.1,0.1c-4.7,2.8-15.2,3.6-15.2-4.6c0-0.4,0-0.9,0.1-1.2c-1.7,0.7-3.6,1-5.6,0.9c-4.3,4.3-11.7,10-17.3,5.4
	c-2.9-2.3-3.7-6.2-3.4-9.9c-1.7-0.3-2.4-2.6-0.6-4.9c5-6.2,19.9-19.5,27.1-10.5c3.1,4,1.4,9.4-1,13.6l0.1,0l14.9-15
	c0.5-1.1,1.2-2.2,2-3.1c5.1-5.2,10.9,3.7,3.9,6.5c-0.3,0.1-0.6,0.3-0.7,0.6c-0.5,1,0.8,6.6,1.1,10.8c5.6-5.6,10.9-11.4,15.4-17.9
	c5.7-8.2,10.6-17.1,15.7-25.7l0.5-0.8l11-1.4l-19.7,32.8c2.7-2.2,7.3-4.6,10.4-1.8c4.2,4-0.6,12.1-3.2,15.7
	c-0.7,0.9-2.9,4.2-4.1,6.4c2.4-1.7,6.3-5.2,7.2-6.2c14.2-14.3,21.8-27.3,32.2-44.6l0.5-0.8l10.9-1.5l-24.1,39.3
	c0.4,0,0.8,0.1,1.2,0.2c2.6,0.7,3.1-1,4.8-2.9c14.7-17.5,20.4,3.3,11.1,3.3c-2.9,0-3.2-1.3-3.8-2.8c-0.6,0.7-0.5,1-1.2,2.1
	c-1.2,1.8-2.6,3.2-4.2,4.2c1.5,1.8,2,4.1,1.6,6.7c-0.2,0.9-0.7,2.4-1.1,3.5c5.4-2.8,18.2-23.9,31.9-23.9c2.6,0,5.2,1,6.4,3.6
	c4.2,9.1-11.3,15-17.9,16.7c-0.7,9,8.5,0.6,11.3-2.1c4.4-4.2,18.7-24.4,25.3-16.5c1.2,1.4,1.6,3.2,1.5,5c4.4-4.3,11.2-9.5,14.9-4.8
	c5.3,6.7-6.3,17.4-8.2,22c4.5-2.4,21.3-20.9,23.6-24.3l1.6-2.4H345l3.3-5.5h4.5l5.5-8.6l10.9-0.8l-6,9.3h10.2l-3.1,5.5h-10.6
	c-3.2,5-15.2,22.8-16.7,26.9c0.8-0.3,1.9-0.9,2.3-1.2c3.8-2.7,7.4-7.1,10.6-10.6c3.9-4.3,14.6-17.5,20.6-10.5
	c6,7.1-6.5,18.7-7.1,22.3c0.1,0,0.2,0,0.3,0c7.8,0,13.9-10,14.6-17.5c1.1-11.8,16.7-8,4.5,9.4c4.9-2.9,10.3-10.6,14.4-14.7l0.5-0.5
	l11.1-0.7l-14.4,23.7c0.7-0.3,1.4-0.8,1.7-1c8.1-5.8,13-15.2,21.3-21c2.5-1.7,6-2.9,8.6-0.8c1.8,1.5,2.3,3.6,2.1,5.7
	c4.5-4.3,11.2-9.6,14.9-4.9c5.3,6.7-6.5,17.7-8.3,22.2c5.5-1.6,18.8-24.3,32.1-24.3c17.9,0,2.8,29.9-11.9,29.9
	C455.6,161.3,453.4,156.9,453,152.1L453,152.1z M419.3,122.9c7.2-8.3-8.5-13.1-8.5-2.8C410.8,125.1,416.4,126.2,419.3,122.9
	L419.3,122.9z M120.9,125.1c2.2,1.2,5,1.9,8.3,1.9c7.4,0,13.9-3.5,19-9.1c2-2.2,6.6-8.3,6.6-11.4c0-4.8-3.7-2.2-5.4-0.1
	c-0.7,0.9-1.3,1.9-2,2.8c-18.5,21.4-39.5,6.3-20.7-3.9c11.9-6.5,26.8-4,40.4-2.8l-4.5,2l-0.1,0.1c-23.5,17.8-23.1,51.1-58.1,51.1
	c-31.5,0-24.9-30.1,0.7-30.1c4.4,0,11.6,1.1,12.6,6.8c0.6,3.6-1.6,7.3-4.2,9.3c-4.3,3.4-9.3,3.7-14.3,2.8c-2.1-0.4-10.2-3.7-10.2,1
	c0,7.9,34.9,10.3,34.9-11.8C123.8,130.2,122.7,127.3,120.9,125.1L120.9,125.1z M116.7,121.5c-6.6-8.9,0.4-25.8,26.7-26.7l45.3-1.6
	c1.6-0.1,3.8,0.2,4.2,2.2c1.3,5.6-13.2,7.5-16.5,7.5c-1,0-2.1,0-3.1-0.1c0,1.2-1,1.9-1.9,2.5c-16.1,9.6-16.9,38.7-43,51
	c-15.3,7.2-51.7,11.3-51.7-15.6C76.8,120.1,103.6,113.6,116.7,121.5L116.7,121.5z M221,169.5h289.1v-3.9H221V169.5L221,169.5z
	 M396.2,189.6c0.5,6.6,3.4,4.4,5.5,8.6c-1.1-0.6-2.8-1.3-5-1.2c13,3,14.6,12.2,27,9.2c-3.3-4-5.9-8.2-8.4-12.2l-0.2,0.3
	C410.9,187.3,401,193.9,396.2,189.6L396.2,189.6z M399.1,189.3l13.8,0.7c-3.9-6.1-7.9-11.4-13.8-14.2l0.5-0.9l-0.5,0
	c-0.2,5.4-1.8,9.3,0.5,14.2C399.4,189.2,399.2,189.3,399.1,189.3L399.1,189.3z M416.8,176c2.5,5.4,3.5,11-0.4,16.7
	c2.5,3.9,5,8.1,8.2,12.1c0.1-1.4,0.3-2.7,0.5-4l-0.4,0.7c2.6-8.4,4-10.4,0.8-14.7c-1.6-2.2-3.2-4.3-1.1-8.4
	c-2.4,2.6-2.2,8.6-3.1,8.6C421.2,182.1,420.5,179.5,416.8,176L416.8,176z M416.4,192.7L416.4,192.7L416.4,192.7z M415.5,191.2
	c3-4.8,2.1-9.5,0.1-14.1c0.2,1.6,0.4,3.6,0.3,4.3c-1-5.9-10.2-6.4-15.2-6.6C407.1,178.3,411.2,184.4,415.5,191.2L415.5,191.2z
	 M425.7,179.6c-2,4.7,2.1,6,3.2,9.9l6.8-14.3c-2.5,0.6-7.9,1.1-10,4.6L425.7,179.6L425.7,179.6z M437.1,176.4l-6,12.3l7.1-4.9
	l1.3,0.7c0.1-0.3,0.1-0.7,0.1-1.1c-0.8,0-1-0.6-2-0.6C437.4,180.9,437.8,179.1,437.1,176.4L437.1,176.4z M433.7,192.2
	c-2.9-2,2.6-3.8,4.9-6.3c-3.2,3.3-11.6,2.2-12.4,20.6c7.4,1.5,12.2-2.9,11.8-11.3c-0.1-3.1-0.3-6,2.1-8.6
	C435.4,187.5,434.8,192.9,433.7,192.2L433.7,192.2z M424.7,207.6c-2,0.5-4,0.8-5.9,0.9l0,0.1c-18.7-3-16.4,6.1-25.3,8.3
	c8.4,4,11.9-3,16.7-3c1.1,1.2,0.6,2-0.8,2.6C416.8,215.7,425.3,219,424.7,207.6L424.7,207.6z M418.8,208.6L418.8,208.6L418.8,208.6z
	 M393,215.4c5.8-1.4,6.7-6.5,13.5-8.4c-5.8-1-11.6-1.7-17.9,1.4l-0.5-1.1l-0.5,0.3c0,1.1,6.4,4.7,7.1,6.1
	C394.3,214.1,393.6,214.8,393,215.4L393,215.4z M389,206.4c8-3.4,14.9-1.3,22.4-0.2c-5.4-2.8-7.2-6.1-15.8-7.9c0.5,0.3,1,0.8,1,1.4
	C392.2,201.6,390.7,204.6,389,206.4L389,206.4z M405.9,217.6l-13,4.4c8.6-0.8,15.2,4.9,18,4.7c6.1-1.9,10.9-4.9,12.9-10.8
	c-4.3,3.7-12.1,0.7-17.3,2.9L405.9,217.6L405.9,217.6z M407.8,227.6c-4.7-1.7-8.1-4.5-14.5-4c6.5,1.5,1.4,4.9-0.3,6.7L407.8,227.6
	L407.8,227.6z M426.2,212.3c-1,9.4-6.9,13.6-14.7,16l0,0.2l-16.7,3.1c11.5,2.8,30.6,7.8,35.8-7.4c0.2-0.5,0.3,1.2,0.5,2.6
	C431.8,222.6,432,217.5,426.2,212.3L426.2,212.3z M426.3,210.3c7.4,6.1,7.1,12.1,6.3,17c2-2.5,4.6-5.3,3.4-10.5l-0.3,0.5
	c-3.7-2.4-6.7-5.2-9.4-8L426.3,210.3L426.3,210.3z M427.8,208.4c2.2,2.4,4.7,4.6,7.6,6.7c-1.3-2.6-0.4-5.7,2-7.2
	c-1.7,0-3.1-0.1-3.9-0.3C431.7,208.3,429.9,208.6,427.8,208.4L427.8,208.4z M436,206.3c5.3,0.3,16.7-0.2,19.3-5.8
	c-0.8,0.4-1.5,0.6-1.9,0.6c0.5-3.1,1.1-7.1,2.3-10.5l-0.4-1C446.5,192.2,442.6,201.9,436,206.3L436,206.3z M439,201.5
	c4.6-4.8,8.2-10.8,15.1-13.2c-4-0.7-9.2-3-13.5,2.2c0-0.3,0.2-1.5,0.4-2.6C438,191.6,440.7,196.7,439,201.5L439,201.5z M456.9,200.8
	c-1.5,3.6-5.7,5.4-10.2,6.3l3.5,1.3l4.5-2.1c0.5-0.4,1.1-0.9,1.5-1.3C456.5,203.7,456.7,202.3,456.9,200.8L456.9,200.8z
	 M454.7,206.4L454.7,206.4L454.7,206.4z M470.2,188.9c3.1,1.8,4.8-7.1,0.4-8.3C468.5,183.1,467.5,186.3,470.2,188.9L470.2,188.9z
	 M442.8,212.5c0,0.2,0,0.4,0,0.7v-1.3C442.8,212.1,442.8,212.3,442.8,212.5L442.8,212.5z M463.4,212.2c0,0.2,0,0.5,0,0.8
	L463.4,212.2L463.4,212.2z M471.3,212.5c0-6-7.4-4.1-7.9-0.3V210l-0.3-0.3l0.8-8.9c3.5,3.3,7.9,6,13.7,8.3l1.6-1.9
	c-5.1-3.4-10.5-6-14.7-11.7c-1.9-5.3-2.6-15.9,4.5-15.9c-2.7,3.7-3.2,8.6,1.1,11.1c5.4,0.5,5.7-8.5,1.9-11c1.5-1.5,3.1-3.1,5-4.1
	l-1.3-1.3c-1.5,1.9-3.2,2.5-4.9,4.3c-7.6-1.7-9.6,6.4-9.2,12.7c-1.1-1.9-1.5-5.3-2.6-7.6c-1.1,2.4-6.2,2.3-1.1-1
	c-3.8,1.1-2.6,3.6-1.6,6.3c1.4,3.8,3.2,7,5.5,9.8c-2.9,6.5-6.5,8.7-6.8,9.5l-0.3-0.1l-0.1,0.1l0.8,1.1c-5.8-3.4-8.6,7.3-2,7.3
	l2.9-1.3v-5.2l-0.7-0.6l6.6-7.9l-0.7,7.4c-6.3-2.2-7.1,8.7-0.7,7.6c0.9-0.2,1.8-0.7,2.4-1.4V213c0.1,0.7,0.4,1.4,1,2.1
	C466.7,217.9,471.3,216.2,471.3,212.5L471.3,212.5z M466.9,217.2l-3-1.5c-0.2,0.2-5.4,2.4-2.1,6.2c3.1,3.5,8.6-0.7,6.1-4.7H466.9
	L466.9,217.2z M460.1,219.3l0.4-2l0-0.1l-3.5-1.5l-3,1.5c-2.7,4.4,3.9,8.5,6.5,4.1L460.1,219.3L460.1,219.3z M452.9,221l0-3.4
	l-2.8-1.9l-3.9,1.5C443.3,221.8,450.6,225.9,452.9,221L452.9,221z M441.8,216.1l-1.3,0.5C440.9,216.5,441.3,216.4,441.8,216.1
	L441.8,216.1z M445.5,221l0-3.4l-2.8-1.9l-0.9,0.3c0.3-0.2,0.7-0.5,1-0.9v-2.1c0.5,3.2,4.6,4.5,6.8,2v-5.2c-2.3-2.6-6.3-1.2-6.8,2
	v-2.1c-0.7-0.8-1.7-1.2-2.9-1.2c-6.6,0-3.6,8.6,0.5,8l-1.7,0.6C435.9,221.8,443.1,225.9,445.5,221L445.5,221z M444.9,222.8l-4.5,0.9
	c-1.4,1.9-0.6,7.8,5.4,4.2l0.3-0.4V224C445.8,223.5,445.3,223.1,444.9,222.8L444.9,222.8z M446.9,224c-2.2,3.7,3.1,5.5,3.4,5.1
	l2.5-1.7v-3.2c-0.2-0.4-0.5-0.8-0.8-1l-4.7,0.3L446.9,224L446.9,224z M453.4,225.8c0,2.4,3.6,3.8,4.1,3.3l2.2-1.5l0-3.7l-0.4-0.5
	l-4.7-0.3L453.4,225.8L453.4,225.8z M460.2,226.6l0.6,1.3l2.9,1.4c2.7-0.1,4.3-3.3,2.6-5.5l-4.5-0.9L460.2,226.6L460.2,226.6z
	 M449.5,230.4c-1.8-3.1-6.5-1.8-6.5,1.8c0,1.9,1.6,3.5,3.5,3.5l2.8-1.5l0.2-0.3l-0.4-1.8L449.5,230.4L449.5,230.4z M456.5,230.5
	c-2.7-5.5-9,1.7-5.9,3.7l2.8,1.4l2.8-1.5l0.3-0.4c-0.2-0.5-0.3-1-0.3-1.6C456.2,231.6,456.3,231,456.5,230.5L456.5,230.5z
	 M463.2,230c-3.4-4.4-8.4,2.3-5.5,4.3C463.5,238.2,464.9,232.2,463.2,230L463.2,230z M456.7,242c4.7,0,4.6-7,0-7
	c-1.9,0-3.5,1.5-3.5,3.5l0.6,2L456.7,242L456.7,242z M452.8,240.2v-3.5l-3-1.8c-4.7,0-4.6,7.3,0.3,7L452.8,240.2L452.8,240.2z
	 M453.3,248.3c4.9,0,4.4-7.4-0.3-7C448.6,241.6,448.8,248.3,453.3,248.3z"/>
</svg>
