<?xml version="1.0" encoding="utf-8"?>
<!-- Generator: Adobe Illustrator 21.0.0, SVG Export Plug-In . SVG Version: 6.00 Build 0)  -->
<svg version="1.1" id="Слой_1" xmlns="http://www.w3.org/2000/svg" xmlns:xlink="http://www.w3.org/1999/xlink" x="0px" y="0px"
	 viewBox="0 0 142 83.8" style="enable-background:new 0 0 142 83.8;" xml:space="preserve">
<style type="text/css">
	.st0{fill-rule:evenodd;clip-rule:evenodd;fill:#FFFFFF;}
	
		.st1{fill-rule:evenodd;clip-rule:evenodd;fill:none;stroke:#D7569C;stroke-width:0.2435;stroke-linecap:round;stroke-miterlimit:22.9256;}
	.st2{fill-rule:evenodd;clip-rule:evenodd;fill:none;}
	.st3{fill-rule:evenodd;clip-rule:evenodd;fill:#52AC62;}
	.st4{fill-rule:evenodd;clip-rule:evenodd;fill:#A8D0AA;stroke:#52AC62;stroke-width:0.4252;stroke-miterlimit:22.9256;}
	.st5{fill-rule:evenodd;clip-rule:evenodd;fill:#4F59A1;}
	.st6{fill-rule:evenodd;clip-rule:evenodd;fill:#D7569C;}
</style>
<g>
	<path class="st0" d="M140.8,40.8c0,20.3-26.7,37-61.3,39.4c-0.1,0.4-0.1,0.7-0.2,1.1l-0.1,1.2h-4v-0.1c-1.4,0.6-3.1,0.4-4.2-0.6
		c-0.6,0.6-1.5,0.9-2.6,0.9c-0.6,0-1.1-0.1-1.6-0.2v0h-6.5V80C26.8,77.1,1.2,60.7,1.2,40.8C1.2,18.8,32.5,1,71,1
		C109.6,1,140.8,18.8,140.8,40.8z"/>
	<g>
		<path class="st1" d="M61.8,75.3c1.4,0,1-0.3,1,4.7c0,1-0.4,0.9-1.2,0.9v0.3h3.8v-0.3c-0.6,0.1-1.3,0-1.3-0.7v-5.8
			c-0.5,0-0.6,0.4-2.4,0.7V75.3L61.8,75.3z M67.4,78.1c0.9,0.5,3.5,1.7,1.8,2.8c-1.2,0.8-3.2,0.1-2.4-1.9
			C66.9,78.6,67.1,78.4,67.4,78.1L67.4,78.1z M68.9,77.3c-1-0.4-1.9-0.8-1.9-1.8c0-1.5,3.5-1.2,2.6,1C69.4,77,69.2,77.2,68.9,77.3
			L68.9,77.3z M68.3,74.4c-2.4,0-3.1,2.1-1.2,3.4c-2,1-1.8,3.6,1.3,3.6c2.3,0,3.5-2.6,0.8-3.9C71.2,76.9,70.9,74.4,68.3,74.4
			L68.3,74.4z M74.5,80.6c-0.5,1.1-2.7,0.7-2-2.9C74.6,76.5,75.1,79.2,74.5,80.6L74.5,80.6z M75.6,74.3c-2.3,0.6-4.4,2-4.4,4.3
			c0,3.9,4.8,3.4,4.8,0.5c0-2.1-2.4-2.4-3.5-1.7c0.7-1.4,1.5-2.3,3-2.9V74.3L75.6,74.3z M79.7,75.6c-1.2,1.5-3.1,3.9-3.1,5.5H78
			c0.4-3.5,2.4-5.8,2.5-6.1v-0.5h-3.8L75.8,76l0.2,0.1l1.1-0.4H79.7z"/>
		<path class="st2" d="M75.9,79.8v-1.2c0.1,0.2,0.1,0.4,0.1,0.6C76,79.4,76,79.6,75.9,79.8L75.9,79.8z M75.9,76v-0.2l0.8-1.3h3.8
			v0.5c-0.1,0.3-2.1,2.6-2.5,6.1h-1.4c0-1.6,1.9-4,3.1-5.5h-2.5L76.1,76L75.9,76z M75.9,75.8V76l-0.1,0L75.9,75.8L75.9,75.8z
			 M75.9,78.5v1.2c-0.3,1.1-1.3,1.7-2.4,1.7v-0.3c0.4,0.1,0.8-0.1,0.9-0.5c0.5-1.1,0.2-3.1-0.9-3.2v-0.3
			C74.5,77,75.6,77.4,75.9,78.5L75.9,78.5z M73.6,75.9v-0.8c0.6-0.3,1.3-0.6,2-0.8v0.2C74.7,74.9,74.1,75.3,73.6,75.9z M73.6,75.1
			v0.8c-0.4,0.4-0.7,0.9-1,1.5c0.3-0.2,0.6-0.3,1-0.3v0.3c-0.3,0-0.6,0.1-1,0.3c-0.5,2.3,0.3,3.3,1,3.4v0.3c-1.2,0-2.4-0.8-2.4-2.8
			C71.2,77,72.2,75.9,73.6,75.1L73.6,75.1z M68.2,81.4v-0.2c0.4,0,0.7-0.1,1.1-0.3c1.2-0.8,0-1.7-1.1-2.3V77
			c0.2,0.1,0.5,0.2,0.7,0.3c0.4-0.2,0.6-0.4,0.7-0.7c0.5-1.3-0.5-2-1.4-1.9v-0.3l0.1,0c2.6,0,2.9,2.5,0.9,3.1
			c2.7,1.3,1.5,3.9-0.8,3.9C68.3,81.4,68.3,81.4,68.2,81.4z M61.8,75.3c1.4,0,1-0.3,1,4.7c0,1-0.4,0.9-1.2,0.9v0.3h3.8v-0.3
			c-0.6,0.1-1.3,0-1.3-0.7v-5.8c-0.5,0-0.6,0.4-2.4,0.7V75.3L61.8,75.3z M68.2,74.4v0.3c-0.6,0-1.2,0.3-1.2,0.9
			c0,0.7,0.5,1.1,1.2,1.5v1.5c-0.3-0.2-0.6-0.3-0.8-0.4c-0.3,0.3-0.5,0.6-0.6,0.8c-0.6,1.5,0.4,2.3,1.4,2.3v0.2
			c-2.9-0.1-3-2.6-1-3.5C65.2,76.6,65.9,74.5,68.2,74.4z"/>
	</g>
	<path class="st3" d="M71,2.6c36.9,0,66.9,17.1,66.9,38.2c0,18.9-24,34.5-55.5,37.6l-0.3-3.8c29.1-2.9,51.2-16.9,51.2-33.8
		c0-19-27.9-34.3-62.3-34.3c-7.9,0-15.4,0.8-22.3,2.3l-0.3-3.9C55.5,3.4,63.1,2.6,71,2.6L71,2.6z M59.6,78.3l0-3.9
		c-29-2.9-50.9-16.9-50.9-33.7c0-8.2,5.2-15.7,13.9-21.6L20.2,16c-10,6.7-16,15.3-16,24.8C4.1,59.6,28.1,75.3,59.6,78.3z"/>
	<ellipse class="st4" cx="71" cy="40.7" rx="59.3" ry="31.3"/>
	<g>
		<path class="st5" d="M48.6,54.5c-0.4-0.5-2.2,2.3-2.2,3.1v0.2C47,57.9,49.2,55.4,48.6,54.5L48.6,54.5z M77.6,57.7
			c0.6-0.2,2.6-2.7,2.3-3.2h-0.1C78.9,54.5,77.6,56.8,77.6,57.7L77.6,57.7L77.6,57.7z M70.3,51.9c-0.6,0.7-1.7,0.4-1.7-0.5
			C68.5,49.4,71.7,50.3,70.3,51.9L70.3,51.9z M89.2,51.9l-0.6,1.2h-1.9c-0.6,0.8-2.5,3.7-2.9,4.7c1-0.6,3.4-3.9,4-4.2h0.1l2.1-0.2
			l-2.4,4.1c0.8-0.6,1.8-1.8,2.1-1.8c1.8,0-2.1,4.6-3.6,2.8c-0.2-0.3-0.3-0.6-0.3-0.9c-1,0.9-2.3,1.9-3.2,0.9
			c-0.3-0.3-0.4-0.6-0.4-0.9c-0.3,0.4-0.8,0.8-1.2,1.1c-1,0.6-1.8,0.4-2.1-0.5c-1.3,1.1-2.8,0.9-3-0.6c-0.9,0.9-2.3,2-3.1,0.9
			c-0.5-0.8-0.3-1.6,0.1-2.3c-0.9,0.9-1.8,2.1-2.1,2.5l-0.1,0.2l-2.3,0.2l0.5-0.8c0.3-0.5,1.7-2.4,2.3-3.4c-1.3,1.3-4.1,5.6-5.7,3.7
			c-0.3-0.4-0.4-0.7-0.3-1.2c-0.4,0.2-0.9,0.3-1.4,0.3c-0.7,0.7-1.7,1.3-2.7,1.3c-1,0-1.4-0.6-1.4-1.4c-0.9,0.9-2.3,2-3,0.8
			c-0.5-0.7-0.3-1.4,0-2.1c-0.8,0.9-1.6,1.9-1.9,2.3l-0.1,0.2l-2.3,0.2l2-3.3c-0.9,1.1-2.1,2.5-2.4,2.9L52,58.7l-2.3,0.2l0.5-0.8
			c0.3-0.4,1.4-1.9,2.1-3c-0.5,0.5-1,1.1-1.2,1.3c-0.6,0.6-1.5,1.2-2.4,1.2c-1.5,1.5-3.7,1.8-3.9-0.3c-1.2,1.2-2.9,2.4-4.2,0.6
			c-1.2-1.7,0.6-5.4-0.9-5.4c-0.4,0-0.7-0.1-0.9-0.2c-0.5,0.8-0.9,1.6-1.5,2.4c-2.2,2.9-4.9,4.4-8.6,4.4c-8,0-7-9.6,0.5-9.6
			c6,0,5.8,7.4-0.6,7.4c-3.5,0-3.4-2.4-1.8-1.7c3.5,1.5,7-1.7,4.7-3.3c-2.2-1.5-6.8,0.3-6.8,3c0,3.3,5.7,3.2,7.8,1.9
			c1.7-1.1,2.9-3,3.9-4.6c0.9-1.4,1.8-2.8,2.8-4.1c-0.8,0.3-1.7,0.3-2.3-0.3c-0.8-0.8-0.3-1.7-0.5-2.1c-0.7,0-1.7,1.2-2.1,1.7
			c-0.3,0.4-1.7,3-2.4,2.7c-0.3-0.2-0.3-0.3-0.3-0.5c0-1.8,4.9-7,6.6-4.8c1.2,1.5-1.2,3.6,3.4,0.7c0.5-0.3,2.9-2.3,3-0.7
			c0,0.3,0.1,0.1-0.1,0.3c-0.2,0.5-0.9,0.7-1.3,0.9c-0.8,0.4-1.4,0.9-1.8,1.6c-0.7,1.1-1.3,2.2-1.9,3.4c2.9,0,5.1-6.7,9.9-6.7
			c3.7,0,1.8,4.6,0.2,2.8c-0.6-0.6-0.1-1.2-0.1-1.6c-0.1-0.1-0.2-0.1-0.2-0.1c-1.2,0-2.7,2-3.4,2.8c-1.4,1.5-2.8,2.8-4.6,3.6
			c2.4,1.7,0.5,5.1,1,5.7c0.3,0.4,2.8-2.2,3-2.4c2.7-3,5.8-1.9,4.5,1c0.9-0.6,1.5-1.8,2.3-2.4c0.4-0.3,1.1-0.5,1.6-0.2
			c0.3,0.2,0.5,0.5,0.5,0.8c0.7-0.7,1.6-1.3,2.3-0.8c0.3,0.2,0.4,0.5,0.5,0.8c0.1-0.2,0.3-0.3,0.4-0.4c0.5-0.5,1.3-0.9,1.9-0.5
			c1.1,0.7-0.1,2.6-0.6,3.3c-0.1,0.1-0.2,0.3-0.4,0.6c2.6-2.2,4.7-6.1,6.3-9l0.2-0.2L67,48l-0.4,0.8c-0.8,1.3-4.8,7.7-5.2,9
			c0.2,0,0.5-0.2,0.6-0.2c1-0.6,1.3-1.8,1.4-2.8c0.2-2.5,3-1.6,1.5,1.4c0.9-0.7,1.8-2.3,2.4-2.6h0.1l2.2-0.2l-0.5,0.8
			c-0.4,0.5-1.8,2.6-2.2,3.5c1-0.6,3.1-3.4,3.9-3.9c0.4-0.3,1-0.5,1.6-0.2c0.4,0.2,0.5,0.5,0.5,0.9c0.8-0.7,1.9-1.5,2.6-0.7
			c1,1.3-0.7,2.8-1.3,3.8c0.8-0.6,1.9-2,2.3-2.4c0.8-0.8,3.2-2.6,4.3-1.4l0.2-0.2l2.2-0.2l-0.5,0.8c-0.3,0.5-1.7,2.5-2.2,3.4
			c1-0.7,3.1-3.4,4-4.5h-0.6l0.6-1.2h0.8l1-1.6l2.2-0.2l-1,1.7H89.2c-0.1-0.2-0.2-0.3-0.2-0.5c0-2,3.1-1.1,1.8,0.5
			C90.3,52.4,89.5,52.4,89.2,51.9L89.2,51.9z M52.3,44.3v0.8H122v-0.8H52.3L52.3,44.3z M94.5,49.6c0.2,1.4,0.8,0.9,1.4,1.8
			c-0.3-0.2-0.7-0.3-1.2-0.3c3.1,0.7,3.5,2.7,6.5,2c-0.8-0.9-1.4-1.8-2-2.7l-0.1,0.1C98.1,49.1,95.7,50.5,94.5,49.6L94.5,49.6z
			 M95.2,49.5c0.1,0,0.1-0.1,0.1-0.1c-0.5-1.1-0.2-1.9-0.2-3.1h0.2l-0.2,0.2c1.5,0.6,2.4,1.8,3.4,3.2L95.2,49.5L95.2,49.5z
			 M99.5,46.6c0.9,0.7,1.1,1.3,1.1,2.4c0.2,0,0.2-1.3,0.8-1.8c-0.5,0.9-0.1,1.3,0.3,1.8c0.8,0.9,0.5,1.4-0.2,3.2l0.2-0.2
			c-0.1,0.3-0.2,0.5-0.2,0.9c-0.8-0.9-1.3-1.8-2-2.6C100.4,49,100.1,47.8,99.5,46.6L99.5,46.6z M99.2,49.9c-1-1.5-2-2.8-3.5-3.6
			c1.2,0,3.4,0.2,3.6,1.5c0.1-0.2-0.1-0.6-0.1-1C99.7,47.8,99.9,48.9,99.2,49.9L99.2,49.9z M101.7,47.4L101.7,47.4
			c0.5-0.7,1.8-0.8,2.4-0.9l-1.7,3.1C102.1,48.7,101.2,48.4,101.7,47.4L101.7,47.4z M104.4,46.7l-1.5,2.7l1.7-1.1l0.3,0.2v-0.2
			c-0.2,0-0.2-0.1-0.5-0.1C104.5,47.7,104.6,47.3,104.4,46.7L104.4,46.7z M103.6,50.1c-0.8-0.4,0.6-0.8,1.1-1.4
			c-0.8,0.7-2.8,0.5-3,4.5c1.8,0.4,2.9-0.6,2.9-2.5c-0.1-0.6-0.1-1.3,0.5-1.8C104,49.1,103.8,50.3,103.6,50.1L103.6,50.1z
			 M101.4,53.5c0.2,2.5-1.9,1.8-3.7,1.9c0.3-0.1,0.5-0.3,0.2-0.6c-1.2,0-2,1.5-4.1,0.7c2.2-0.5,1.6-2.5,6.1-1.8
			C100.5,53.7,100.9,53.6,101.4,53.5L101.4,53.5z M93.8,55.2c0.2-0.1,0.3-0.3,0.4-0.3c-0.2-0.3-1.7-1.2-1.7-1.4l0.1-0.1l0.1,0.3
			c1.5-0.7,2.9-0.6,4.3-0.3C95.4,53.7,95.2,54.9,93.8,55.2L93.8,55.2z M92.8,53.2c0.4-0.4,0.8-1,1.8-1.5c0-0.1-0.1-0.2-0.2-0.3
			c2.1,0.4,2.5,1.1,3.8,1.7C96.4,53,94.7,52.5,92.8,53.2L92.8,53.2z M96.9,55.7l-3.1,0.9c2.1-0.2,3.7,1.1,4.3,1.1
			c1.5-0.4,2.6-1.1,3.1-2.4c-1,0.8-2.9,0.2-4.2,0.6L96.9,55.7L96.9,55.7z M97.3,57.8l-3.6,0.6c0.4-0.4,1.6-1.1,0.1-1.4
			C95.4,56.8,96.2,57.5,97.3,57.8L97.3,57.8z M101.8,54.5c-0.2,2-1.7,2.9-3.6,3.5v0.1l-4,0.7c2.8,0.6,7.4,1.7,8.6-1.6
			c0.1-0.1,0.1,0.3,0.1,0.6C103.1,56.7,103.2,55.7,101.8,54.5L101.8,54.5z M101.8,54.1v-0.2c0.6,0.6,1.4,1.2,2.3,1.7l0.1-0.1
			c0.3,1.1-0.3,1.7-0.8,2.3C103.5,56.7,103.6,55.4,101.8,54.1L101.8,54.1z M102.1,53.6c0.5,0.1,1,0,1.4-0.2c0.2,0.1,0.5,0.1,1,0.1
			c-0.6,0.3-0.8,1-0.5,1.6C103.3,54.7,102.7,54.2,102.1,53.6L102.1,53.6z M104.1,53.2c1.7-1,2.5-3.1,4.7-3.6l0.1,0.2
			c-0.3,0.8-0.4,1.7-0.5,2.3c0.1,0,0.3,0,0.5-0.2C108.1,53.2,105.4,53.2,104.1,53.2L104.1,53.2z M104.8,52.2c0.4-1-0.2-2.2,0.5-3
			c-0.1,0.3-0.1,0.5-0.1,0.6c1-1.1,2.3-0.6,3.2-0.5C106.8,49.8,106,51.1,104.8,52.2L104.8,52.2z M109.2,52c-0.3,0.8-1.4,1.2-2.5,1.4
			l0.9,0.3l1.1-0.5c0.2-0.1,0.3-0.2,0.4-0.3C109.1,52.6,109.1,52.3,109.2,52L109.2,52z M112.4,49.4c-0.7-0.6-0.4-1.3,0.1-1.8
			C113.5,47.9,113.1,49.8,112.4,49.4L112.4,49.4z M105.8,54.5v-0.1v0.3V54.5L105.8,54.5z M110.7,54.5v0.2V54.5L110.7,54.5z
			 M112.7,54.5c0-1.3-1.8-0.8-1.9-0.1V54l-0.1-0.1l0.2-1.9c0.9,0.7,1.9,1.3,3.3,1.8l0.4-0.4c-1.2-0.7-2.5-1.3-3.6-2.6
			c-0.4-1.2-0.6-3.5,1.1-3.5c-0.6,0.8-0.8,1.9,0.2,2.4c1.3,0.2,1.4-1.8,0.5-2.4c0.3-0.3,0.8-0.7,1.2-0.8l-0.3-0.3
			c-0.3,0.4-0.8,0.5-1.2,0.9c-1.8-0.4-2.3,1.4-2.2,2.8c-0.3-0.4-0.4-1.2-0.6-1.7c-0.3,0.6-1.5,0.5-0.3-0.2c-0.9,0.3-0.6,0.8-0.4,1.4
			c0.3,0.8,0.8,1.5,1.3,2.2c-0.7,1.4-1.5,1.9-1.6,2l-0.1-0.1l-0.1,0.1l0.2,0.3c-1.4-0.8-2.1,1.6-0.5,1.6l0.7-0.3V54l-0.2-0.2
			l1.6-1.7l-0.2,1.6c-1.5-0.5-1.7,1.9-0.2,1.7c0.3-0.1,0.5-0.2,0.6-0.3v-0.4c0.1,0.1,0.1,0.3,0.3,0.4
			C111.5,55.7,112.7,55.4,112.7,54.5L112.7,54.5z M111.6,55.6h0.3c0.6,0.9-0.8,1.8-1.5,1.1c-0.8-0.8,0.5-1.3,0.5-1.4L111.6,55.6
			L111.6,55.6z M109.9,56.1l0.1,0.4c-0.6,1-2.2,0.1-1.6-0.9l0.7-0.3l0.9,0.3v0.1L109.9,56.1L109.9,56.1z M108.2,56.4
			c-0.5,1.1-2.3,0.2-1.6-0.8l0.9-0.3l0.6,0.4V56.4L108.2,56.4z M105.6,55.4c-0.1,0-0.3,0.1-0.3,0.1L105.6,55.4L105.6,55.4z
			 M106.4,56.4c-0.6,1.1-2.3,0.2-1.6-0.8l0.4-0.1c-1,0.1-1.7-1.8-0.1-1.8c0.2,0,0.5,0.1,0.6,0.3v0.5c0.2-0.7,1.1-1,1.7-0.4v1.2
			c-0.5,0.5-1.5,0.2-1.7-0.5v0.5c-0.1,0.1-0.2,0.2-0.2,0.2l0.2-0.1l0.6,0.4V56.4L106.4,56.4z M106.3,56.8l-1.1,0.2
			c-0.3,0.4-0.2,1.7,1.3,0.9l0.1-0.1v-0.8C106.5,57,106.4,56.8,106.3,56.8L106.3,56.8z M106.8,57.1c-0.5,0.8,0.7,1.2,0.8,1.1
			l0.6-0.4v-0.7c-0.1-0.1-0.1-0.2-0.2-0.2l-1.1,0.1L106.8,57.1L106.8,57.1z M108.3,57.5c0,0.5,0.9,0.8,1,0.7l0.5-0.3v-0.8l-0.1-0.1
			l-1.1-0.1L108.3,57.5L108.3,57.5z M110,57.6l0.1,0.3l0.7,0.3c0.6-0.1,1-0.7,0.6-1.2l-1.1-0.2L110,57.6L110,57.6z M107.4,58.5
			l-0.1,0.4l0.1,0.4h-0.1l-0.7,0.4c-0.4,0-0.8-0.4-0.8-0.8C105.8,58.1,107,57.8,107.4,58.5L107.4,58.5z M109.1,58.5
			c-0.6-1.2-2.2,0.4-1.4,0.8l0.7,0.4l0.7-0.4l0.1-0.1c-0.1-0.1-0.1-0.3-0.1-0.4C109,58.7,109,58.6,109.1,58.5L109.1,58.5z
			 M110.7,58.4c-0.8-0.9-2.1,0.5-1.4,0.9C110.8,60.2,111.1,58.8,110.7,58.4L110.7,58.4z M109.1,61l-0.6-0.3l-0.2-0.4
			c0-0.5,0.3-0.8,0.8-0.8C110.2,59.5,110.3,61,109.1,61L109.1,61z M108.1,60.6v-0.7l-0.7-0.4c-1.1,0-1.1,1.6,0.1,1.5L108.1,60.6
			L108.1,60.6z M108.3,62.4c1.2,0,1.1-1.6-0.1-1.5C107.2,60.9,107.2,62.4,108.3,62.4z"/>
	</g>
	<path class="st6" d="M116.2,42.9v-1.6c1-1,2.1-2.4,1.5-3.1c-0.3-0.4-0.9,0-1.5,0.7V37c0.4-0.1,0.8-0.2,1.2-0.2
		C121,36.8,119,41.5,116.2,42.9z M116.2,37v1.8c-0.9,0.9-1.7,2.4-1.7,3.1c0,0.6,0.8,0.2,1.7-0.6v1.6c-0.5,0.3-1.1,0.5-1.7,0.5
		c-1.3,0-1.8-1-1.9-2c-1.1,1.1-3.2,2.8-4.3,1.4c-0.2-0.3-0.3-0.6-0.3-1.1c-0.1-0.7,0.3-1.5,0.8-2.1c0.2-0.2,0.7-0.7,1.1-1.2
		c-1.5,1-4.2,4.5-4.8,4.7H105l-1.3,0.1v-1.6c0.9-1.1,2.3-2.9,2.7-3.6c-0.5,0.2-1.5,1.4-2.7,2.5v-1.9c0.5-0.5,1.1-1,1.8-1.5
		c0.6-0.4,1.5-0.6,2.1-0.2c0.4,0.3,0.5,0.8,0.5,1.2c1.1-0.9,2.7-2,3.6-1.1c1.3,1.5-1.6,3.9-2,4.8C110.8,41.8,113.4,38,116.2,37
		L116.2,37z M103.6,35.4v-2.3c0.9,0,1.8,0.8,0.8,1.9C104.2,35.2,103.9,35.4,103.6,35.4z M72.3,39.4c0.2-0.1,0.4-0.3,0.5-0.4
		c0.1-0.2,0.6-0.7,0.5-0.9c-0.2,0-0.8,0.4-1.1,0.6V37c0.4-0.1,0.7-0.2,1.1-0.2c0.6,0,1.2,0.3,1.5,0.8c0.7,1.4-1,2.5-2.6,3.1V39.4
		L72.3,39.4z M103.6,33.1v2.3c-0.6,0.1-1.3-0.3-1.3-1C102.4,33.5,103,33.1,103.6,33.1L103.6,33.1z M103.6,38.8
		c-1.1,1.1-2,2.3-3.3,3.2c-0.1,0-0.3,0.1-0.4,0.2l3.5-5.1l-2.7,0.2l-0.1,0.1c-1,0.9-2.3,2.6-3.5,3.3c3-3.8-0.8-4.7-1-2.1
		c-0.2,1.6-1.7,3.8-3.6,3.8h-0.1c0.1-0.8,3.1-3.4,1.7-4.9c-1.5-1.5-4.1,1.3-5,2.3c-0.7,0.8-1.6,1.7-2.5,2.3
		c-0.1,0.1-0.3,0.2-0.5,0.3c0.4-0.9,3.2-4.8,4.1-5.9h2.6l0.7-1.2h-2.4l1.4-2l-2.6,0.2l-1.3,1.9h-1.1l-0.8,1.2h1l-0.4,0.5
		c-0.5,0.7-4.6,4.7-5.7,5.3c0.5-1.1,3.3-3.4,2-4.8c-0.9-1-2.5,0.2-3.6,1.1c0-0.4-0.1-0.7-0.4-1.1c-1.6-1.7-5.1,2.6-6.1,3.6
		c-0.2,0.2-0.6,0.5-1,0.8V43c2.3-1.2,4.8-4.4,5.8-4.9c-0.5,1-2.8,3.8-3.3,4.5l-0.7,0.8l2.8-0.2L77,43c0.5-0.6,3.1-3.4,4.5-4.5
		c-0.4,0.5-0.9,0.9-1,1.1c-0.4,0.6-0.9,1.4-0.9,2.1c0.1,0.4,0.2,0.7,0.4,1.1c1,1.3,2.9-0.2,4.2-1.4c-0.1,0.5,0,1.1,0.4,1.4
		c1.5,1.6,4.1-1.2,5.1-2.2c0.8-0.8,1.6-1.6,2.5-2.3c0-0.1,0.1-0.1,0.2-0.2c-0.2,0.3-0.5,0.8-0.7,0.9c-3.1,3.8,0.4,5.4,3.9,2.6
		c0.9,0.1,1.6-0.2,2.3-0.6c-0.2,0.6-0.1,1.2,0.4,1.6c1.3,1.4,3.5-0.5,5.3-2.2V38.8L103.6,38.8z M103.6,41.7v1.6l-1.3,0.1l0.6-0.8
		C103.1,42.4,103.3,42.1,103.6,41.7z M71.3,39.9c0.4-0.1,0.7-0.3,1.1-0.6v1.4c-0.6,0.3-1.3,0.4-1.7,0.6c-0.1,1.3,0.9,0.9,1.7,0.3V43
		c-1.1,0.6-2.3,0.6-3.1-0.4c-0.4-0.4-0.5-0.8-0.6-1.3c-1.2,1.2-3.2,2.9-4.5,1.4c-0.9-1.1-0.4-1.5-0.2-2.2c-0.4,0.1-0.9,0.1-1.2-0.1
		l-1.8,2.7l-2.5,0.3l1-1.5c-1,0.9-2.6,2.2-3.6,0.9c-1.5-1.9,1.1-3.7,1.8-4.7c-1.2,0.8-4.2,4.5-5,5l-0.1,0.1l-2.4,0.2l1.5-2l-1.8,1.5
		l-0.1,0.1c-0.3,0.2-0.8,0.3-1.3,0.4v-1.7c0.1-0.2,0.3-0.3,0.3-0.4c0.4-0.6,0.6-1.5,0.6-2.3c-0.3,0.4-0.6,0.7-1,1.1v-1.9l1.1-1
		c0.1-0.3,0.3-0.5,0.5-0.7c1.2-1.2,2.6,0.8,0.9,1.4C50.8,38,50.8,38,50.7,38c-0.2,0.3,0.2,1.4,0.3,2.4c1.4-1.3,2.6-2.5,3.7-3.9
		c1.4-1.8,2.6-3.7,3.8-5.6l0.1-0.2l2.6-0.3l-4.8,7.1c0.6-0.5,1.8-1,2.5-0.4c1,0.9-0.1,2.7-0.7,3.5c-0.2,0.2-0.8,0.9-1,1.4
		c0.5-0.4,1.5-1.2,1.7-1.4c3.5-3.1,5.2-5.9,7.8-9.7l0.1-0.2l2.6-0.3L63.7,39c0.1,0,0.2,0,0.3,0.1c0.6,0.2,0.7-0.3,1.1-0.6
		c3.6-3.8,4.9,0.7,2.7,0.7c-0.8,0-0.8-0.3-1-0.6c-0.1,0.1-0.1,0.2-0.3,0.4c-0.3,0.4-0.6,0.7-1,1c0.4,0.4,0.5,0.8,0.4,1.4
		c-0.1,0.2-0.2,0.5-0.3,0.7c1.2-0.5,3.7-4.2,6.6-5v1.6c-0.1,0.1-0.2,0.1-0.2,0.2C71.8,39.1,71.5,39.5,71.3,39.9L71.3,39.9z
		 M48.4,30.2v-1.7l0.5,0c0.3,0,0.9,0.1,1,0.5C50,29.6,49.3,30,48.4,30.2z M48.4,28.5v1.7c-1,0.3-2.1,0.4-2.5,0.4
		c-0.2,0-0.5,0-0.7-0.1c0,0.3-0.2,0.5-0.5,0.6c-0.5,0.3-0.9,0.6-1.3,1v-1.5l0.3-0.1l-0.3,0v-1.8L48.4,28.5L48.4,28.5z M48.4,38.2V40
		c-0.3,0.3-0.6,0.6-1,0.9c0.5,0.1,0.9,0.5,0.6,1.1c0.1-0.1,0.3-0.2,0.4-0.4v1.7c-1.1,0.1-2.4-0.2-2.4-1.4c0-0.1,0-0.2,0.1-0.3
		c-0.4,0.1-0.9,0.2-1.4,0.2c-0.4,0.4-0.9,0.7-1.4,1.1v-1.5c1.1-1,2.1-2.4,1.5-3.1c-0.3-0.4-0.9,0-1.5,0.7v-1.8
		c1-0.4,2.1-0.4,2.8,0.4c0.8,0.9,0.3,2.1-0.3,3L48.4,38.2z M43.3,28.7v1.8c-3.2-0.3-6.6-0.7-9.4,0.6c-4.5,2.3,0.5,5.6,5,0.9
		c0.2-0.2,0.3-0.4,0.5-0.6c0.4-0.5,1.3-1.1,1.3,0c0,0.6-1.1,2-1.6,2.5c-1.2,1.3-2.8,2-4.6,2c-0.8,0-1.5-0.2-2-0.4
		c0.4,0.5,0.7,1.2,0.7,1.8c0,4.9-8.4,4.4-8.4,2.6c0-1.1,1.9-0.3,2.4-0.2c1.2,0.2,2.4,0.1,3.5-0.6c0.6-0.5,1.1-1.3,1-2.1
		c-0.2-1.2-2-1.5-3.1-1.5c-6.2,0-7.7,6.6-0.2,6.6c8.5,0,8.4-7.3,14-11.1V31l0.8-0.3v1.5c-2.7,2.7-3.5,7.8-9,10.1
		c-3.7,1.6-12.5,2.5-12.5-3.4c0-4.5,6.5-5.9,9.6-4.2c-1.6-1.9,0.1-5.6,6.4-5.8L43.3,28.7L43.3,28.7z M43.3,37.1
		c-1.5,0.6-3,1.9-3.7,2.7c-0.5,0.5-0.3,1,0.1,1.1c-0.1,0.8,0.2,1.6,0.9,2.2c0.8,0.6,1.9,0.4,2.8-0.2v-1.5c-0.8,0.8-1.7,1.2-1.7,0.6
		c0-0.6,0.8-2.1,1.7-3.1V37.1z"/>
	<g>
		<path class="st5" d="M36.7,18.3c0.3-0.3,0.5-0.6,0.4-0.8c-0.1,0.1-0.3,0.3-0.4,0.4v-4c1.3-1.9,2.4-3.9,4.4-5.3l0.1,0l0.5-0.3
			c-0.7,0-1.4,0-2.1-0.1l0,0.9c0,0.5-1,1.8-1.3,2.2c-0.5,0.5-1,0.9-1.6,1.2v-2c0.4-0.3,0.8-0.6,1.2-0.9l1.4-1.3
			c-0.9,0-1.7,0-2.6,0.1V7.1l0.2,0l9.9-0.9c0.4,0,0.9,0,1.1,0.5c0.4,1.1-2.8,1.6-3.6,1.7l-0.6,0c0,0.4-0.2,0.3-0.4,0.4
			C43.1,9,42.9,9,42.8,9.2c-1.9,1.4-3.1,4.9-5.1,7.1c1.2,0.4,1.3,2.4-0.9,3.5V18.3z M36.3,18.7c0.2-0.1,0.3-0.2,0.5-0.4v1.6
			c-0.3,0.1-0.6,0.3-1,0.4l0,0.2v-5.1c0.4-0.4,0.7-0.9,1-1.4v4l0,0.1C36.5,18.2,36.3,18.4,36.3,18.7L36.3,18.7z M36.7,7.1v1.3
			c-0.3,0-0.7,0.1-1,0.2V7.3C36.1,7.2,36.4,7.2,36.7,7.1L36.7,7.1z M36.7,10.6v2c-0.3,0.2-0.7,0.3-1,0.4v-1.8
			C36.1,11,36.4,10.8,36.7,10.6z M35.7,7.3v1.4c-0.8,0.2-1.5,0.4-2.2,0.7c-3.1,1.6-0.9,3.3,2.2,1.8V13c-0.5,0.2-1,0.2-1.5,0.3
			c-0.6,0-1.2,0-1.6-0.1c0.2,0.2,0.3,0.5,0.4,0.8c0.2,1-0.2,1.9-0.9,2.7c0.5,0.1,1,0.3,1.3,0.7c0.9-0.6,1.6-1.3,2.3-2.1v5.1
			c-0.1,0.4-0.2,0.8-0.3,1.2l-1.4,0.9l-0.7,4.7c0,0,0.2,0.1,0.6,0.3c-1.5,1.5-2.8,2.5-3.4,2v-0.8l1-1.9l2.1-6.5
			c-0.5-0.1-0.9-0.4-1.2-0.7c0.1,1.3-0.7,2.8-1.8,3.8v-2.8l0-0.1l0.2-0.7l-0.3,0v-1.4l0.7-0.1C31,18,30.8,18,30.5,18.1v-1.8
			c0.1-0.1,0.2-0.1,0.3-0.2c1.6-1.2,0.9-2.1-0.3-2.5V12c0.2,0,0.4,0.1,0.5,0.2C30.1,10.6,31.3,8,35.7,7.3z M30.5,12v1.6
			c-0.5-0.1-1-0.2-1.6-0.2c-4.5,0.2-6.7,4.6-1.7,5.2c0.2-0.1,0.4-0.3,0.6-0.4c-0.4,0-0.7-0.1-1.1-0.2l-0.1,0l-2.1-1.4l1.6-0.1
			c1.2-0.1,0.4,0.2,2,0.2c0.9,0.1,1.7,0,2.4-0.5v1.8c-0.2,0.1-0.4,0.2-0.7,0.3l-0.1,0l0.7-0.1v1.4l-2.7,0.2
			c-1.8,2.2,1.4,4.4,2.7,0.6v2.8c-1.1,1-2.6,1.3-3.8,0.2c-1.1-1-1.1-2.6-0.5-3.8c-5.7-1.4-4.1-7.7,2.4-8
			C29.3,11.7,29.9,11.8,30.5,12L30.5,12z M30.5,28.7v0.8l0,0l-0.3-0.2L30.5,28.7z"/>
		<path class="st6" d="M35.6,16.7c-1.1,0.7-1.6,2.3-2,3.6l-2.1,6.5l-1.2,2.5l0.3,0.2c1.4,1.3,10.7-8.1,11.5-9.2
			c0.4-0.4,2.6-2.9,3.2-2.9c1.7,0.7,2.3-1.1,1.5-1.9c-0.9-0.7-2.3,0.3-2.8,0.9c-2,2-7.5,7.2-9.5,8.4c0.6-1.5,1.1-3,1.4-4.5
			c3.2-0.9,3.3-3.5,1.9-3.9C37.5,16.3,36.7,15.9,35.6,16.7L35.6,16.7z M36.3,18.7c0.1-0.2,0.2-0.5,0.4-0.7c0.1-0.1,0.4-0.4,0.5-0.5
			C37.3,17.9,36.8,18.3,36.3,18.7z"/>
		<path class="st6" d="M29.9,18.4L29.9,18.4L29.9,18.4z M30.6,20.4c-1.3,4-4.5,1.8-2.8-0.4c0.8-1,1.8-1.5,2.1-1.6
			c0.7-0.3,1-0.5,1.4-0.1l-0.4,1.5L30.6,20.4L30.6,20.4z M26.2,19.8c-0.7,1.2-0.6,2.8,0.5,3.8c2.5,2.2,5.8-1.5,5.7-4
			c0.3,0.3,0.7,0.6,1.2,0.7c0.2-0.7,0.4-1.4,0.8-2c0,0-0.4-0.2-0.8-0.8c-0.3-0.4-0.8-0.6-1.3-0.7c0,0-1.9-0.5-4.3,1.4
			c-0.2,0.1-0.4,0.3-0.6,0.4C27.3,18.6,26.7,19.1,26.2,19.8z"/>
	</g>
</g>
</svg>
