<?xml version="1.0" encoding="UTF-8"?>
<!DOCTYPE svg PUBLIC "-//W3C//DTD SVG 1.1//EN" "http://www.w3.org/Graphics/SVG/1.1/DTD/svg11.dtd">
<!-- Creator: CorelDRAW 2017 -->
<svg xmlns="http://www.w3.org/2000/svg" xml:space="preserve" width="1in" height="1in" version="1.1" style="shape-rendering:geometricPrecision; text-rendering:geometricPrecision; image-rendering:optimizeQuality; fill-rule:evenodd; clip-rule:evenodd"
viewBox="0 0 1000 1000"
 xmlns:xlink="http://www.w3.org/1999/xlink">
 <defs>
  <style type="text/css">
   <![CDATA[
    .str0 {stroke:#009846;stroke-width:3;stroke-miterlimit:22.9256}
    .fil0 {fill:#FEFEFE}
    .fil2 {fill:#E5097F}
    .fil6 {fill:#E5097F}
    .fil4 {fill:#A8D4AF}
    .fil3 {fill:#009846}
    .fil5 {fill:#00069A}
    .fil1 {fill:#E5097F;fill-rule:nonzero}
   ]]>
  </style>
 </defs>
 <g id="Слой_x0020_1">
  <metadata id="CorelCorpID_0Corel-Layer"/>
  <g id="_805371968704">
   <path class="fil0" d="M781.7 495.49c0,81.92 -107.86,149.4 -247.22,159.07 -0.33,1.45 -0.57,2.92 -0.72,4.4l-0.5 4.95 -16.18 0 0 -0.34c-5.48,2.43 -12.37,1.81 -16.94,-2.42 -2.57,2.24 -6.17,3.68 -10.56,3.68 -2.39,0 -4.53,-0.34 -6.4,-0.94l0 0.01 -26.39 0 0 -10.03c-134.96,-11.83 -238.48,-78.2 -238.48,-158.38 0,-88.56 126.27,-160.48 281.71,-160.48 155.64,0 281.69,71.92 281.69,160.48z"/>
   <g>
    <path class="fil1" d="M467.9 653.79l-1.72 0 0 0 0 -1.85 0.01 -1.72 0.02 -1.61 0.02 -1.49 0.02 -1.38 0.02 -1.27 0.02 -1.17 0.02 -1.07 0.02 -0.98 0.01 -0.88 0 -0.8 -0.01 -0.71 -0.01 -0.63 -0.03 -0.55 -0.04 -0.47 -0.05 -0.4 -0.06 -0.32 -0.07 -0.25 -0.07 -0.18 -0.06 -0.11 -0.05 -0.07 -0.05 -0.04 -0.07 -0.04 -0.11 -0.04 -0.16 -0.04 -0.22 -0.03 -0.27 -0.02 -0.32 -0 -0.37 0 -0.42 0.01 -0.47 0.01 -0.51 0 0 -1.72 0.49 -0 0.46 -0.01 0.43 -0.01 0.4 -0 0.38 0.01 0.37 0.02 0.36 0.05 0.35 0.08 0.34 0.13 0.33 0.19 0.3 0.25 0.25 0.31 0.2 0.35 0.15 0.37 0.11 0.4 0.08 0.44 0.06 0.49 0.04 0.54 0.03 0.6 0.02 0.67 0.01 0.73 -0 0.81 -0.01 0.89 -0.02 0.98 -0.02 1.07 -0.02 1.17 -0.02 1.27 -0.02 1.38 -0.02 1.49 -0.02 1.6 -0.01 1.72 -0 1.84 0 0zm-4.76 3.55l-1.72 0 0.86 -0.86 0.31 0 0.3 0 0.29 0 0.27 0 0.26 0 0.24 0 0.24 -0 0.22 -0 0.19 -0.01 0.19 -0.01 0.17 -0.02 0.15 -0.02 0.13 -0.03 0.11 -0.03 0.1 -0.04 0.08 -0.04 0.06 -0.04 0.06 -0.04 0.06 -0.05 0.05 -0.05 0.05 -0.06 0.05 -0.08 0.05 -0.1 0.05 -0.13 0.04 -0.15 0.04 -0.18 0.04 -0.2 0.03 -0.23 0.03 -0.26 0.02 -0.28 0.01 -0.31 0 -0.34 1.72 0 -0 0.38 -0.01 0.36 -0.02 0.34 -0.03 0.32 -0.04 0.3 -0.06 0.29 -0.07 0.27 -0.08 0.26 -0.1 0.25 -0.11 0.23 -0.13 0.22 -0.15 0.21 -0.18 0.19 -0.19 0.16 -0.2 0.14 -0.22 0.12 -0.22 0.1 -0.22 0.08 -0.23 0.06 -0.23 0.05 -0.23 0.04 -0.23 0.02 -0.23 0.02 -0.25 0.01 -0.25 0.01 -0.25 0 -0.26 0 -0.27 -0 -0.27 -0 -0.28 -0 -0.29 -0 -0.3 -0 0.86 -0.86zm-1.72 0l0 -0.86 0.86 0 -0.86 0.86zm0 1.08l0 -1.08 1.72 0 0 1.08 -0.86 0.86 -0.86 -0.86zm0.86 0.86l-0.86 0 0 -0.86 0.86 0.86zm15.39 0l-15.39 0 0 -1.72 15.39 0 0.86 0.86 -0.86 0.86zm0.86 -0.86l0 0.86 -0.86 0 0.86 -0.86zm0 -1.08l0 1.08 -1.72 0 0 -1.08 0.76 -0.85 0.96 0.85zm-0.96 -0.85l0.96 -0.12 0 0.97 -0.96 -0.85zm-5.84 -2.08l1.72 0 0 0 0.01 0.22 0.02 0.2 0.03 0.18 0.04 0.16 0.04 0.15 0.05 0.13 0.06 0.12 0.06 0.11 0.07 0.1 0.07 0.09 0.08 0.09 0.09 0.08 0.1 0.07 0.1 0.07 0.11 0.06 0.13 0.06 0.14 0.05 0.14 0.05 0.16 0.04 0.16 0.04 0.17 0.03 0.18 0.02 0.19 0.02 0.19 0.01 0.2 0.01 0.21 0 0.21 -0 0.22 -0.01 0.22 -0.01 0.22 -0.02 0.22 -0.02 0.23 -0.03 0.2 1.71 -0.25 0.03 -0.25 0.03 -0.26 0.02 -0.25 0.01 -0.25 0.01 -0.25 0 -0.25 -0 -0.25 -0.01 -0.25 -0.02 -0.25 -0.02 -0.24 -0.04 -0.24 -0.04 -0.24 -0.05 -0.23 -0.06 -0.24 -0.08 -0.23 -0.09 -0.22 -0.1 -0.22 -0.12 -0.21 -0.14 -0.2 -0.15 -0.19 -0.16 -0.18 -0.18 -0.17 -0.2 -0.15 -0.22 -0.13 -0.23 -0.11 -0.24 -0.1 -0.26 -0.08 -0.27 -0.06 -0.28 -0.04 -0.29 -0.03 -0.3 -0.01 -0.32 0 0zm1.72 -23.59l0 23.59 -1.72 0 0 -23.59 0.86 -0.86 0.86 0.86zm-0.86 -0.86l0.86 0 0 0.86 -0.86 -0.86zm-8.82 3.79l-1.72 0 0.72 -0.85 0.65 -0.12 0.61 -0.12 0.58 -0.12 0.54 -0.12 0.5 -0.12 0.47 -0.12 0.44 -0.12 0.41 -0.12 0.39 -0.12 0.36 -0.12 0.33 -0.12 0.31 -0.11 0.29 -0.12 0.27 -0.11 0.25 -0.11 0.24 -0.11 0.22 -0.1 0.21 -0.1 0.2 -0.09 0.19 -0.09 0.19 -0.09 0.18 -0.08 0.18 -0.08 0.18 -0.08 0.18 -0.07 0.19 -0.07 0.19 -0.06 0.19 -0.05 0.21 -0.04 0.21 -0.03 0.22 -0.02 0.22 -0.01 0 1.72 -0.12 0 -0.12 0.01 -0.11 0.01 -0.11 0.02 -0.12 0.03 -0.12 0.04 -0.12 0.04 -0.13 0.05 -0.14 0.06 -0.16 0.07 -0.17 0.08 -0.18 0.08 -0.19 0.09 -0.21 0.1 -0.22 0.1 -0.24 0.11 -0.26 0.11 -0.28 0.12 -0.29 0.12 -0.32 0.12 -0.34 0.13 -0.36 0.13 -0.39 0.13 -0.41 0.13 -0.44 0.13 -0.47 0.13 -0.5 0.13 -0.54 0.13 -0.57 0.12 -0.6 0.13 -0.64 0.12 -0.67 0.12 0.72 -0.85zm-1.72 0l0 -0.73 0.72 -0.12 -0.72 0.85zm0 1.08l0 -1.08 1.72 0 0 1.08 -0.86 0.86 -0.86 -0.86zm0.86 0.86l-0.86 0 0 -0.86 0.86 0.86zm30.46 22.06l-0.94 -1.44 -0 0 0.5 -0.36 0.4 -0.35 0.31 -0.34 0.22 -0.32 0.15 -0.3 0.09 -0.28 0.04 -0.27 -0.01 -0.27 -0.06 -0.29 -0.1 -0.3 -0.15 -0.32 -0.2 -0.33 -0.25 -0.34 -0.3 -0.35 -0.34 -0.35 -0.38 -0.35 -0.41 -0.35 -0.44 -0.35 -0.46 -0.34 -0.48 -0.33 -0.49 -0.33 -0.5 -0.32 -0.5 -0.31 -0.51 -0.3 -0.5 -0.28 -0.49 -0.27 -0.48 -0.26 -0.46 -0.24 -0.44 -0.23 -0.41 -0.21 -0.38 -0.2 -0.35 -0.18 0.8 -1.52 0.34 0.18 0.38 0.2 0.42 0.22 0.44 0.23 0.47 0.25 0.49 0.27 0.51 0.28 0.52 0.3 0.53 0.31 0.53 0.32 0.53 0.33 0.53 0.35 0.51 0.36 0.5 0.37 0.48 0.38 0.46 0.4 0.44 0.41 0.4 0.42 0.37 0.43 0.33 0.45 0.29 0.47 0.23 0.49 0.17 0.52 0.1 0.53 0.02 0.55 -0.08 0.56 -0.17 0.55 -0.26 0.53 -0.36 0.51 -0.45 0.49 -0.53 0.47 -0.62 0.45 -0 0zm0 -0l-0 0 0.1 -0.06 -0.09 0.06zm-11.08 -8.97l1.53 0.78 0.04 -0.08 -0.25 0.7 -0.19 0.66 -0.13 0.63 -0.07 0.59 -0.02 0.55 0.02 0.52 0.07 0.48 0.1 0.45 0.14 0.42 0.18 0.39 0.21 0.36 0.24 0.33 0.27 0.31 0.3 0.28 0.32 0.25 0.35 0.23 0.37 0.2 0.39 0.18 0.41 0.15 0.43 0.12 0.44 0.09 0.45 0.06 0.46 0.03 0.47 -0 0.47 -0.03 0.47 -0.07 0.47 -0.09 0.46 -0.13 0.46 -0.16 0.45 -0.19 0.43 -0.22 0.42 -0.25 0.94 1.44 -0.52 0.32 -0.54 0.28 -0.55 0.24 -0.56 0.2 -0.57 0.16 -0.58 0.12 -0.58 0.08 -0.58 0.04 -0.58 0 -0.58 -0.03 -0.57 -0.07 -0.56 -0.11 -0.55 -0.15 -0.53 -0.19 -0.51 -0.23 -0.49 -0.27 -0.47 -0.31 -0.44 -0.35 -0.41 -0.39 -0.38 -0.43 -0.34 -0.47 -0.29 -0.51 -0.24 -0.54 -0.2 -0.58 -0.14 -0.61 -0.09 -0.64 -0.03 -0.67 0.03 -0.7 0.09 -0.73 0.16 -0.75 0.22 -0.78 0.28 -0.8 0.04 -0.08zm-0.04 0.08l0.01 -0.03 0.03 -0.05 -0.04 0.08zm3.58 -3.69l-0.8 1.52 1.04 -0.19 -0.1 0.11 -0.1 0.11 -0.09 0.11 -0.09 0.11 -0.1 0.11 -0.09 0.11 -0.09 0.1 -0.09 0.11 -0.09 0.11 -0.08 0.1 -0.08 0.09 -0.08 0.1 -0.08 0.1 -0.07 0.1 -0.07 0.1 -0.07 0.1 -0.07 0.1 -0.07 0.09 -0.07 0.09 -0.06 0.09 -0.06 0.09 -0.06 0.09 -0.05 0.08 -0.06 0.09 -0.06 0.09 -0.05 0.09 -0.05 0.08 -0.05 0.08 -0.05 0.08 -0.05 0.08 -0.04 0.07 -0.04 0.08 -1.53 -0.78 0.05 -0.09 0.05 -0.1 0.05 -0.1 0.05 -0.1 0.06 -0.1 0.06 -0.1 0.06 -0.1 0.06 -0.09 0.06 -0.1 0.07 -0.1 0.07 -0.1 0.07 -0.1 0.08 -0.11 0.07 -0.1 0.08 -0.11 0.07 -0.1 0.08 -0.11 0.08 -0.11 0.08 -0.11 0.09 -0.11 0.08 -0.11 0.09 -0.12 0.09 -0.11 0.09 -0.11 0.09 -0.11 0.1 -0.12 0.1 -0.11 0.1 -0.11 0.1 -0.12 0.11 -0.12 0.1 -0.11 0.1 -0.12 1.04 -0.19zm-1.04 0.19l0.45 -0.5 0.59 0.31 -1.04 0.19zm-1.97 -9.45l1.72 0 0 0 0.01 0.29 0.03 0.27 0.04 0.26 0.06 0.25 0.08 0.25 0.09 0.24 0.11 0.23 0.12 0.22 0.14 0.22 0.16 0.22 0.17 0.21 0.19 0.21 0.2 0.21 0.21 0.2 0.23 0.2 0.24 0.19 0.25 0.19 0.26 0.18 0.28 0.18 0.29 0.18 0.3 0.17 0.31 0.17 0.32 0.17 0.33 0.16 0.33 0.16 0.34 0.16 0.35 0.16 0.35 0.15 0.36 0.15 0.36 0.15 0.37 0.14 0.37 0.15 -0.62 1.6 -0.37 -0.15 -0.37 -0.15 -0.38 -0.15 -0.37 -0.16 -0.37 -0.16 -0.37 -0.16 -0.36 -0.17 -0.36 -0.17 -0.35 -0.18 -0.35 -0.18 -0.34 -0.19 -0.34 -0.19 -0.32 -0.2 -0.32 -0.21 -0.31 -0.22 -0.3 -0.22 -0.29 -0.23 -0.28 -0.24 -0.27 -0.25 -0.25 -0.26 -0.24 -0.27 -0.22 -0.28 -0.21 -0.29 -0.19 -0.31 -0.18 -0.32 -0.15 -0.33 -0.13 -0.34 -0.11 -0.35 -0.09 -0.37 -0.06 -0.38 -0.04 -0.39 -0.01 -0.4 0 0zm12.28 4.52l-1.56 -0.72 -0.02 0.05 0.25 -0.76 0.16 -0.69 0.07 -0.64 0 -0.58 -0.06 -0.53 -0.13 -0.48 -0.18 -0.44 -0.23 -0.4 -0.28 -0.37 -0.32 -0.34 -0.36 -0.3 -0.4 -0.27 -0.44 -0.24 -0.47 -0.2 -0.49 -0.16 -0.51 -0.13 -0.52 -0.09 -0.53 -0.05 -0.53 -0.01 -0.52 0.03 -0.5 0.07 -0.48 0.1 -0.45 0.14 -0.42 0.17 -0.38 0.2 -0.33 0.23 -0.28 0.25 -0.23 0.28 -0.18 0.29 -0.13 0.32 -0.09 0.36 -0.03 0.4 -1.72 0 0.05 -0.66 0.15 -0.62 0.24 -0.58 0.32 -0.52 0.39 -0.46 0.45 -0.4 0.5 -0.34 0.54 -0.29 0.57 -0.23 0.59 -0.18 0.62 -0.13 0.63 -0.09 0.64 -0.04 0.65 0.01 0.65 0.06 0.65 0.11 0.64 0.16 0.62 0.21 0.61 0.26 0.58 0.31 0.55 0.37 0.51 0.42 0.46 0.48 0.4 0.54 0.34 0.6 0.26 0.65 0.18 0.7 0.09 0.75 -0 0.79 -0.1 0.83 -0.2 0.87 -0.3 0.9 -0.02 0.05zm0.02 -0.05l-0 0.01 -0.02 0.04 0.02 -0.05zm-3.98 3.42l0.62 -1.6 -0.65 0.01 0.12 -0.05 0.11 -0.05 0.1 -0.05 0.11 -0.06 0.1 -0.06 0.1 -0.06 0.09 -0.06 0.09 -0.06 0.09 -0.06 0.08 -0.06 0.08 -0.07 0.08 -0.06 0.07 -0.06 0.07 -0.07 0.07 -0.07 0.07 -0.07 0.07 -0.08 0.07 -0.07 0.06 -0.08 0.07 -0.09 0.06 -0.08 0.06 -0.08 0.07 -0.1 0.06 -0.09 0.06 -0.09 0.06 -0.1 0.05 -0.1 0.06 -0.1 0.06 -0.11 0.06 -0.11 0.06 -0.12 0.05 -0.11 1.56 0.72 -0.07 0.14 -0.07 0.14 -0.07 0.13 -0.07 0.13 -0.07 0.13 -0.08 0.13 -0.08 0.12 -0.08 0.13 -0.08 0.12 -0.08 0.12 -0.09 0.12 -0.09 0.12 -0.09 0.11 -0.1 0.12 -0.1 0.11 -0.1 0.11 -0.1 0.11 -0.1 0.1 -0.11 0.1 -0.12 0.1 -0.12 0.1 -0.12 0.09 -0.12 0.09 -0.12 0.09 -0.13 0.08 -0.13 0.08 -0.13 0.08 -0.14 0.08 -0.14 0.07 -0.14 0.07 -0.15 0.07 -0.15 0.06 -0.65 0.01zm0.65 -0.01l-0.32 0.14 -0.33 -0.13 0.65 -0.01zm-6.94 1.99l-0.75 -1.54 -0.1 1.49 -0.75 -0.53 -0.69 -0.55 -0.63 -0.57 -0.57 -0.59 -0.51 -0.61 -0.45 -0.62 -0.38 -0.63 -0.32 -0.64 -0.26 -0.65 -0.2 -0.65 -0.14 -0.66 -0.07 -0.65 -0.01 -0.65 0.05 -0.64 0.11 -0.63 0.18 -0.62 0.24 -0.6 0.29 -0.57 0.35 -0.55 0.41 -0.52 0.46 -0.49 0.51 -0.46 0.56 -0.42 0.61 -0.39 0.65 -0.35 0.7 -0.31 0.74 -0.27 0.79 -0.22 0.83 -0.18 0.87 -0.13 0.91 -0.08 0.95 -0.03 0 1.72 -0.85 0.02 -0.81 0.07 -0.77 0.11 -0.72 0.15 -0.68 0.19 -0.63 0.22 -0.59 0.26 -0.54 0.29 -0.49 0.31 -0.44 0.34 -0.4 0.36 -0.35 0.38 -0.31 0.4 -0.26 0.41 -0.22 0.43 -0.18 0.44 -0.13 0.45 -0.08 0.47 -0.04 0.47 0.01 0.49 0.05 0.5 0.1 0.5 0.16 0.51 0.2 0.51 0.26 0.51 0.31 0.52 0.37 0.52 0.43 0.51 0.48 0.51 0.55 0.5 0.61 0.48 0.67 0.47 -0.1 1.49zm0.1 -1.49l1.26 0.83 -1.35 0.66 0.1 -1.49zm4.6 14.2l0 1.72 0 0 -1.19 -0.03 -1.12 -0.09 -1.05 -0.15 -0.99 -0.21 -0.92 -0.26 -0.86 -0.31 -0.79 -0.36 -0.73 -0.41 -0.66 -0.45 -0.6 -0.49 -0.53 -0.53 -0.46 -0.56 -0.39 -0.6 -0.32 -0.62 -0.25 -0.64 -0.18 -0.66 -0.12 -0.67 -0.05 -0.68 0.02 -0.68 0.09 -0.68 0.15 -0.68 0.21 -0.67 0.27 -0.66 0.34 -0.64 0.39 -0.62 0.45 -0.6 0.51 -0.58 0.56 -0.55 0.61 -0.52 0.67 -0.49 0.72 -0.45 0.77 -0.41 0.75 1.54 -0.67 0.35 -0.62 0.38 -0.57 0.41 -0.52 0.44 -0.47 0.46 -0.42 0.48 -0.37 0.49 -0.32 0.51 -0.27 0.51 -0.22 0.52 -0.17 0.53 -0.12 0.52 -0.07 0.52 -0.01 0.52 0.03 0.51 0.09 0.5 0.14 0.49 0.19 0.48 0.24 0.47 0.29 0.45 0.35 0.43 0.41 0.41 0.47 0.39 0.53 0.37 0.6 0.34 0.67 0.3 0.73 0.27 0.8 0.23 0.88 0.18 0.95 0.14 1.02 0.08 1.09 0.03 0 0zm3.1 -15.69l0.48 1.65 0.14 -1.59 1.01 0.54 0.92 0.58 0.84 0.6 0.76 0.63 0.67 0.65 0.59 0.68 0.51 0.7 0.43 0.71 0.34 0.72 0.27 0.73 0.19 0.74 0.11 0.74 0.03 0.74 -0.04 0.73 -0.11 0.72 -0.18 0.7 -0.24 0.68 -0.31 0.66 -0.37 0.63 -0.43 0.6 -0.48 0.57 -0.53 0.53 -0.58 0.49 -0.63 0.45 -0.68 0.41 -0.72 0.36 -0.76 0.32 -0.8 0.26 -0.83 0.21 -0.86 0.15 -0.9 0.1 -0.92 0.03 0 -1.72 0.8 -0.03 0.78 -0.08 0.74 -0.13 0.71 -0.18 0.68 -0.22 0.64 -0.27 0.6 -0.31 0.56 -0.34 0.52 -0.37 0.48 -0.41 0.43 -0.43 0.39 -0.46 0.34 -0.48 0.29 -0.5 0.24 -0.51 0.19 -0.53 0.14 -0.54 0.09 -0.55 0.03 -0.56 -0.02 -0.56 -0.08 -0.57 -0.15 -0.57 -0.21 -0.57 -0.28 -0.58 -0.34 -0.58 -0.42 -0.57 -0.49 -0.57 -0.57 -0.56 -0.66 -0.55 -0.74 -0.54 -0.83 -0.52 -0.92 -0.5 0.14 -1.59zm-0.14 1.59l-1.96 -0.98 2.1 -0.61 -0.14 1.59zm-3.27 -12.4l0 -1.72 0 0 0.99 0.03 0.94 0.09 0.9 0.15 0.84 0.2 0.79 0.25 0.74 0.31 0.68 0.35 0.63 0.39 0.58 0.44 0.52 0.47 0.46 0.5 0.41 0.53 0.35 0.56 0.28 0.58 0.23 0.59 0.16 0.61 0.1 0.62 0.04 0.62 -0.02 0.62 -0.08 0.62 -0.15 0.61 -0.21 0.6 -0.27 0.58 -0.33 0.56 -0.39 0.54 -0.45 0.51 -0.5 0.47 -0.56 0.44 -0.62 0.4 -0.67 0.35 -0.73 0.31 -0.78 0.26 -0.48 -1.65 0.65 -0.22 0.6 -0.25 0.54 -0.29 0.49 -0.32 0.44 -0.34 0.39 -0.37 0.34 -0.38 0.29 -0.4 0.24 -0.42 0.2 -0.43 0.15 -0.44 0.11 -0.44 0.06 -0.45 0.01 -0.45 -0.03 -0.45 -0.07 -0.45 -0.12 -0.45 -0.17 -0.44 -0.21 -0.43 -0.26 -0.42 -0.31 -0.4 -0.36 -0.39 -0.41 -0.37 -0.45 -0.34 -0.51 -0.32 -0.56 -0.29 -0.61 -0.25 -0.67 -0.21 -0.72 -0.17 -0.77 -0.13 -0.83 -0.08 -0.89 -0.03 0 0zm16.54 11.82l0.88 1.48 0.4 -0.56 -0.24 1.29 -0.18 1.21 -0.11 1.13 -0.06 1.06 0 0.98 0.05 0.91 0.1 0.84 0.14 0.77 0.18 0.7 0.21 0.63 0.24 0.56 0.26 0.5 0.28 0.44 0.3 0.38 0.31 0.32 0.32 0.27 0.33 0.23 0.33 0.18 0.34 0.13 0.34 0.09 0.33 0.06 0.33 0.01 0.32 -0.02 0.31 -0.05 0.3 -0.09 0.29 -0.12 0.27 -0.15 0.25 -0.18 0.23 -0.21 0.21 -0.24 0.18 -0.27 0.15 -0.3 1.57 0.69 -0.24 0.48 -0.29 0.44 -0.34 0.39 -0.38 0.35 -0.41 0.3 -0.44 0.25 -0.47 0.2 -0.49 0.14 -0.5 0.09 -0.51 0.03 -0.52 -0.03 -0.52 -0.08 -0.52 -0.14 -0.51 -0.21 -0.5 -0.27 -0.48 -0.33 -0.46 -0.39 -0.43 -0.45 -0.4 -0.51 -0.37 -0.57 -0.33 -0.63 -0.29 -0.69 -0.25 -0.75 -0.21 -0.82 -0.16 -0.88 -0.11 -0.94 -0.06 -1.01 0 -1.07 0.06 -1.14 0.12 -1.21 0.19 -1.28 0.25 -1.36 0.4 -0.56zm-0.4 0.56l0.08 -0.37 0.32 -0.19 -0.4 0.56zm9.56 12.09l-1.57 -0.69 -0.01 0.02 0.19 -0.5 0.17 -0.53 0.15 -0.56 0.12 -0.58 0.09 -0.59 0.07 -0.6 0.05 -0.61 0.02 -0.61 -0.01 -0.61 -0.04 -0.61 -0.06 -0.6 -0.09 -0.58 -0.12 -0.57 -0.15 -0.54 -0.17 -0.52 -0.2 -0.48 -0.22 -0.45 -0.25 -0.41 -0.26 -0.37 -0.29 -0.33 -0.31 -0.28 -0.32 -0.24 -0.35 -0.19 -0.37 -0.14 -0.4 -0.1 -0.43 -0.05 -0.48 0.01 -0.52 0.07 -0.56 0.14 -0.61 0.22 -0.65 0.3 -0.7 0.39 -0.88 -1.48 0.81 -0.45 0.78 -0.36 0.76 -0.27 0.74 -0.18 0.71 -0.1 0.68 -0.02 0.66 0.07 0.62 0.15 0.58 0.22 0.54 0.29 0.5 0.36 0.45 0.41 0.41 0.46 0.36 0.5 0.32 0.53 0.28 0.57 0.24 0.59 0.21 0.62 0.17 0.64 0.14 0.65 0.1 0.67 0.07 0.68 0.04 0.68 0.01 0.69 -0.02 0.69 -0.05 0.69 -0.08 0.68 -0.11 0.67 -0.14 0.66 -0.17 0.64 -0.2 0.62 -0.23 0.6 -0.01 0.02zm0.01 -0.02l-0.01 0.02 0.02 -0.05 -0.02 0.04zm-13.42 -8.2l-1.72 0 0 0 0.03 -0.92 0.08 -0.9 0.13 -0.88 0.18 -0.85 0.23 -0.83 0.27 -0.81 0.31 -0.78 0.36 -0.76 0.4 -0.74 0.44 -0.71 0.47 -0.69 0.51 -0.66 0.54 -0.64 0.57 -0.62 0.6 -0.6 0.63 -0.57 0.65 -0.55 0.68 -0.53 0.71 -0.51 0.73 -0.48 0.75 -0.46 0.76 -0.44 0.79 -0.42 0.8 -0.4 0.81 -0.38 0.83 -0.36 0.84 -0.34 0.85 -0.32 0.86 -0.3 0.87 -0.28 0.87 -0.27 0.88 -0.24 0.44 1.66 -0.84 0.24 -0.84 0.25 -0.83 0.27 -0.82 0.29 -0.81 0.31 -0.8 0.32 -0.79 0.34 -0.77 0.36 -0.76 0.38 -0.74 0.4 -0.72 0.42 -0.7 0.43 -0.68 0.45 -0.65 0.47 -0.63 0.49 -0.61 0.51 -0.58 0.52 -0.55 0.54 -0.52 0.56 -0.49 0.58 -0.45 0.6 -0.42 0.62 -0.39 0.63 -0.35 0.65 -0.32 0.67 -0.27 0.69 -0.24 0.71 -0.2 0.73 -0.16 0.75 -0.11 0.78 -0.07 0.8 -0.02 0.82 0 0zm17.8 2.01l1.72 0 0 0 -0.06 1.15 -0.18 1.09 -0.29 1.04 -0.39 0.97 -0.49 0.91 -0.57 0.84 -0.65 0.76 -0.72 0.69 -0.78 0.61 -0.83 0.54 -0.88 0.46 -0.91 0.38 -0.94 0.3 -0.96 0.22 -0.98 0.14 -0.99 0.05 -0.99 -0.04 -0.99 -0.13 -0.97 -0.22 -0.95 -0.31 -0.92 -0.41 -0.89 -0.51 -0.84 -0.6 -0.78 -0.7 -0.72 -0.81 -0.65 -0.91 -0.57 -1.01 -0.48 -1.11 -0.38 -1.21 -0.28 -1.3 -0.17 -1.41 -0.06 -1.5 1.72 0 0.05 1.37 0.16 1.26 0.25 1.15 0.33 1.05 0.41 0.94 0.48 0.85 0.54 0.75 0.59 0.67 0.64 0.58 0.69 0.5 0.73 0.41 0.76 0.34 0.79 0.26 0.81 0.18 0.83 0.11 0.84 0.03 0.84 -0.04 0.83 -0.12 0.82 -0.19 0.8 -0.26 0.77 -0.32 0.74 -0.39 0.69 -0.45 0.65 -0.51 0.6 -0.57 0.54 -0.63 0.47 -0.68 0.4 -0.74 0.32 -0.8 0.24 -0.85 0.15 -0.91 0.05 -0.96 0 0zm-13.86 -7.35l1.51 0.82 -1.24 -1.12 0.47 -0.3 0.5 -0.26 0.52 -0.23 0.55 -0.2 0.56 -0.17 0.58 -0.14 0.6 -0.1 0.61 -0.07 0.62 -0.04 0.62 -0.01 0.62 0.03 0.63 0.06 0.63 0.09 0.62 0.13 0.62 0.16 0.61 0.2 0.6 0.23 0.58 0.27 0.56 0.31 0.54 0.35 0.52 0.39 0.49 0.43 0.46 0.47 0.43 0.51 0.39 0.55 0.35 0.6 0.3 0.63 0.25 0.67 0.2 0.71 0.15 0.75 0.09 0.79 0.03 0.82 -1.72 0 -0.02 -0.7 -0.08 -0.66 -0.12 -0.62 -0.16 -0.57 -0.2 -0.54 -0.24 -0.5 -0.27 -0.47 -0.31 -0.44 -0.34 -0.4 -0.37 -0.37 -0.39 -0.34 -0.42 -0.31 -0.44 -0.28 -0.46 -0.26 -0.48 -0.22 -0.5 -0.2 -0.51 -0.17 -0.52 -0.14 -0.53 -0.11 -0.53 -0.08 -0.54 -0.05 -0.54 -0.02 -0.53 0 -0.52 0.04 -0.52 0.06 -0.5 0.09 -0.49 0.11 -0.46 0.14 -0.44 0.16 -0.42 0.18 -0.39 0.2 -0.36 0.23 -1.24 -1.12zm1.24 1.12l-2.94 2.01 1.7 -3.13 1.24 1.12zm10.87 -12.43l1.72 0 -0.55 0.8 -0.57 0.23 -0.55 0.23 -0.53 0.24 -0.51 0.25 -0.49 0.25 -0.47 0.26 -0.46 0.27 -0.44 0.28 -0.43 0.28 -0.41 0.29 -0.4 0.3 -0.38 0.31 -0.37 0.32 -0.36 0.32 -0.35 0.33 -0.34 0.34 -0.33 0.35 -0.32 0.36 -0.32 0.37 -0.31 0.38 -0.3 0.39 -0.3 0.4 -0.29 0.41 -0.29 0.42 -0.29 0.43 -0.28 0.44 -0.28 0.45 -0.28 0.46 -0.28 0.48 -0.28 0.48 -0.28 0.5 -0.28 0.51 -1.51 -0.82 0.29 -0.52 0.29 -0.51 0.29 -0.5 0.29 -0.49 0.29 -0.48 0.29 -0.47 0.3 -0.47 0.3 -0.45 0.31 -0.45 0.31 -0.43 0.32 -0.43 0.33 -0.42 0.33 -0.41 0.35 -0.4 0.35 -0.39 0.37 -0.38 0.37 -0.37 0.39 -0.37 0.4 -0.35 0.41 -0.34 0.42 -0.34 0.44 -0.33 0.45 -0.32 0.47 -0.31 0.48 -0.3 0.5 -0.29 0.51 -0.28 0.53 -0.27 0.55 -0.27 0.57 -0.26 0.59 -0.25 0.6 -0.24 -0.55 0.8zm1.72 0l0 0.59 -0.55 0.21 0.55 -0.8zm0 -0.77l0 0.77 -1.72 0 0 -0.77 0.64 -0.83 1.08 0.83zm-1.08 -0.83l1.08 -0.29 0 1.12 -1.08 -0.83zm4.35 27.57l0 1.72 -0.86 -0.86 0.02 -0.69 0.07 -0.7 0.11 -0.71 0.15 -0.72 0.19 -0.72 0.23 -0.73 0.26 -0.74 0.29 -0.74 0.32 -0.75 0.35 -0.75 0.37 -0.76 0.4 -0.76 0.42 -0.76 0.44 -0.76 0.46 -0.76 0.47 -0.76 0.49 -0.76 0.5 -0.75 0.51 -0.75 0.52 -0.74 0.52 -0.74 0.53 -0.73 0.53 -0.72 0.53 -0.71 0.53 -0.7 0.53 -0.69 0.52 -0.67 0.52 -0.66 0.51 -0.64 0.49 -0.62 0.48 -0.61 0.47 -0.59 1.34 1.07 -0.47 0.59 -0.48 0.61 -0.49 0.62 -0.5 0.64 -0.51 0.65 -0.52 0.67 -0.52 0.68 -0.52 0.69 -0.52 0.7 -0.52 0.71 -0.52 0.72 -0.51 0.72 -0.51 0.73 -0.5 0.73 -0.49 0.74 -0.47 0.73 -0.46 0.74 -0.44 0.74 -0.42 0.73 -0.4 0.73 -0.38 0.73 -0.35 0.72 -0.33 0.71 -0.3 0.7 -0.27 0.69 -0.24 0.68 -0.21 0.67 -0.17 0.65 -0.14 0.63 -0.1 0.61 -0.06 0.59 -0.02 0.57 -0.86 -0.86zm0 1.72l-0.86 0 0 -0.86 0.86 0.86zm5.72 0l-5.72 0 0 -1.72 5.72 0 0.85 0.95 -0.85 0.77zm0.85 -0.77l-0.08 0.77 -0.78 0 0.85 -0.77zm8.28 -24.76l1.72 0 -0.05 0.28 -0.11 0.26 -0.14 0.25 -0.16 0.26 -0.19 0.3 -0.22 0.34 -0.25 0.38 -0.28 0.42 -0.3 0.46 -0.33 0.49 -0.35 0.54 -0.36 0.58 -0.38 0.61 -0.39 0.65 -0.4 0.69 -0.41 0.73 -0.42 0.76 -0.42 0.8 -0.42 0.84 -0.42 0.87 -0.41 0.91 -0.4 0.94 -0.39 0.97 -0.38 1 -0.36 1.04 -0.35 1.07 -0.33 1.1 -0.3 1.13 -0.28 1.16 -0.25 1.19 -0.22 1.22 -0.19 1.25 -0.15 1.28 -1.71 -0.18 0.15 -1.33 0.19 -1.3 0.23 -1.27 0.26 -1.24 0.29 -1.21 0.32 -1.17 0.34 -1.14 0.36 -1.11 0.38 -1.08 0.4 -1.04 0.41 -1.01 0.42 -0.97 0.43 -0.94 0.43 -0.9 0.43 -0.86 0.43 -0.83 0.43 -0.79 0.42 -0.75 0.41 -0.71 0.41 -0.67 0.39 -0.63 0.37 -0.59 0.36 -0.55 0.33 -0.51 0.31 -0.46 0.28 -0.42 0.25 -0.37 0.22 -0.32 0.17 -0.27 0.14 -0.22 0.08 -0.15 0.02 -0.05 -0.05 0.28zm1.72 0l0 0.14 -0.05 0.14 0.05 -0.28zm0 -2.16l0 2.16 -1.72 0 0 -2.16 0.86 -0.86 0.86 0.86zm-0.86 -0.86l0.86 0 0 0.86 -0.86 -0.86zm-15.24 0l15.24 0 0 1.72 -15.24 0 -0.74 -1.3 0.74 -0.42zm-0.74 0.42l0.25 -0.42 0.49 0 -0.74 0.42zm-3.49 5.86l3.49 -5.86 1.48 0.88 -3.49 5.86 -1 0.38 -0.47 -1.26zm0.47 1.26l-1.03 -0.33 0.55 -0.93 0.47 1.26zm0.95 0.31l-0.95 -0.31 0.53 -1.64 0.95 0.31 0.04 1.62 -0.57 0.02zm0.57 -0.02l-0.28 0.11 -0.29 -0.09 0.57 -0.02zm4.44 -1.7l-4.44 1.7 -0.61 -1.6 4.44 -1.7 0.31 -0.06 0.31 1.66zm-0.61 -1.6l0.15 -0.06 0.15 0 -0.31 0.06zm10.46 1.66l-10.16 0 0 -1.72 10.16 0 0.67 1.4 -0.67 0.32zm0 -1.72l1.79 0 -1.11 1.4 -0.67 -1.4z"/>
    <path id="1" class="fil2" d="M462.91 634.82c5.55,0 4.13,-1.39 4.13,18.97 0,4.01 -1.43,3.55 -4.76,3.55l0 1.08 15.39 0 0 -1.08c-2.54,0.31 -5.08,0 -5.08,-2.93l0 -23.59c-1.9,0 -2.38,1.7 -9.68,2.93l0 1.08zm22.53 11.1c3.49,1.85 13.97,6.78 7.46,11.1 -4.92,3.24 -13.01,0.31 -9.84,-7.87 0.47,-0.93 1.27,-2 2.38,-3.24zm6.03 -2.93c-3.96,-1.54 -7.77,-3.39 -7.77,-7.09 0,-5.86 14.12,-4.94 10.64,4.16 -0.64,1.39 -1.43,2.31 -2.86,2.93zm-2.22 -11.87c-9.84,0 -12.7,8.63 -4.76,13.88 -7.93,3.86 -7.46,14.34 5.08,14.34 9.36,0 14.12,-10.33 3.34,-15.73 7.93,-2.31 6.66,-12.49 -3.65,-12.49zm24.91 24.98c-1.9,4.32 -10.95,2.93 -7.93,-11.57 8.25,-4.93 10.31,5.86 7.93,11.57zm4.28 -25.29c-9.2,2.47 -17.77,8.02 -17.77,17.42 0,15.89 19.52,13.57 19.52,2.01 0,-8.33 -9.68,-9.87 -13.96,-6.94 3.01,-5.55 5.87,-9.25 12.21,-11.72l0 -0.77zm16.67 5.24c-4.92,6.17 -12.54,15.73 -12.54,22.36l5.72 0c1.43,-14.03 9.52,-23.28 10,-24.67l0 -2.16 -15.24 0 -3.49 5.86 0.95 0.31 4.44 -1.7 10.16 0z"/>
   </g>
   <path class="fil3" d="M500 341.43c148.95,0 269.7,68.9 269.7,153.9 0,76.05 -96.67,139.21 -223.71,151.66l-1.3 -15.42c117.45,-11.61 206.57,-68.19 206.57,-136.24 0,-76.45 -112.49,-138.42 -251.26,-138.42 -31.67,0 -61.97,3.24 -89.87,9.13l-1.05 -15.63c28.41,-5.81 59.02,-8.98 90.92,-8.98zm-45.97 305.57c-127.05,-12.45 -223.72,-75.61 -223.72,-151.67 0,-38.14 24.33,-73.04 64.6,-99.93l9.78 12.86c-34.97,23.78 -55.94,54.08 -55.94,87.07 0,67.83 88.56,124.25 205.44,136.12l-0.16 15.54z"/>
   <path class="fil4 str0" d="M500 368.94c132.12,0 239.22,56.58 239.22,126.39 0,69.8 -107.1,126.39 -239.22,126.39 -132.12,0 -239.22,-56.59 -239.22,-126.39 0,-69.8 107.1,-126.39 239.22,-126.39z"/>
   <g>
    <path class="fil5" d="M409.64 550.98c-1.74,-2.11 -8.72,9.32 -8.72,12.5l0 0.64c2.4,0.42 11.12,-9.54 8.72,-13.14zm117.05 12.92c2.61,-0.84 10.46,-11.02 9.15,-12.92l-0.21 0c-3.92,0 -8.94,9.32 -8.94,12.71l0 0.21zm-29.64 -23.51c-2.4,2.75 -6.98,1.69 -6.98,-2.13 0,-8.05 12.65,-4.45 6.98,2.13zm76.29 0l-2.4 4.66 -7.63 0c-2.4,3.39 -10.03,15.04 -11.55,18.85 4.14,-2.33 13.73,-15.67 16.12,-16.95l0.45 0 8.49 -0.63 -9.8 16.53c3.05,-2.55 7.19,-7.41 8.49,-7.41 7.41,0 -8.49,18.64 -14.6,11.43 -0.87,-1.05 -1.31,-2.33 -1.31,-3.6 -3.92,3.6 -9.37,7.84 -12.85,3.6 -1.09,-1.05 -1.53,-2.33 -1.53,-3.81 -1.31,1.69 -3.05,3.17 -4.79,4.45 -3.93,2.33 -7.2,1.7 -8.29,-1.91 -5.23,4.45 -11.33,3.81 -11.99,-2.54 -3.7,3.81 -9.37,8.27 -12.64,3.6 -1.96,-3.17 -1.08,-6.35 0.44,-9.32 -3.49,3.81 -7.41,8.48 -8.49,9.96l-0.44 0.64 -9.38 0.84 2.18 -3.18c1.3,-2.12 6.97,-9.75 9.37,-13.76 -5.23,5.08 -16.35,22.66 -22.89,15.03 -1.3,-1.48 -1.53,-2.96 -1.3,-4.65 -1.53,0.85 -3.71,1.27 -5.67,1.27 -2.84,2.75 -6.76,5.29 -10.91,5.29 -4.14,0 -5.45,-2.54 -5.45,-5.51 -3.7,3.6 -9.16,8.06 -12.21,3.39 -1.96,-2.96 -1.31,-5.71 0,-8.47 -3.26,3.6 -6.54,7.63 -7.63,9.11l-0.43 0.64 -9.16 0.84 8.07 -13.13c-3.7,4.45 -8.51,9.96 -9.81,11.65l-0.43 0.64 -9.38 0.84 2.18 -3.18c1.31,-1.7 5.67,-7.84 8.28,-12.08 -1.96,2.12 -4.14,4.46 -4.79,5.09 -2.61,2.33 -6.1,4.87 -9.81,4.87 -5.88,5.93 -15.04,7.42 -15.7,-1.06 -4.79,4.67 -11.77,9.75 -16.77,2.33 -4.8,-6.99 2.39,-21.82 -3.71,-21.82 -1.53,0 -2.84,-0.42 -3.49,-0.85 -1.96,3.39 -3.71,6.56 -6.11,9.53 -8.71,11.87 -19.61,17.8 -34.66,17.8 -32.47,0 -28.11,-38.77 1.96,-38.77 24.2,0 23.32,29.66 -2.61,29.66 -14.17,0 -13.74,-9.74 -7.42,-6.99 13.96,6.14 28.12,-6.99 18.97,-13.35 -8.72,-6.15 -27.25,1.06 -27.25,12.28 0,13.14 23.11,12.93 31.39,7.84 6.76,-4.24 11.56,-12.08 15.69,-18.43 3.71,-5.51 7.2,-11.23 11.34,-16.52 -3.27,1.06 -6.76,1.27 -9.38,-1.27 -3.27,-3.39 -1.31,-6.99 -1.96,-8.47 -2.83,0 -6.76,4.66 -8.28,6.78 -1.3,1.7 -6.97,12.08 -9.58,11.01 -1.09,-0.63 -1.31,-1.06 -1.31,-2.11 0,-7.2 19.62,-28.39 26.81,-19.28 4.8,6.14 -5.01,14.62 13.73,2.97 1.96,-1.28 11.77,-9.11 11.99,-2.75 0,1.06 0.22,0.42 -0.22,1.27 -0.65,1.91 -3.7,2.75 -5.45,3.6 -3.27,1.69 -5.45,3.6 -7.41,6.57 -2.83,4.45 -5.44,8.9 -7.63,13.55 11.77,0 20.71,-27.11 40.11,-27.11 15.04,0 7.41,18.43 0.65,11.22 -2.62,-2.54 -0.22,-4.87 -0.44,-6.35 -0.21,-0.21 -0.87,-0.21 -0.87,-0.21 -4.8,0 -10.9,8.05 -13.52,11.23 -5.45,5.93 -11.11,11.22 -18.53,14.41 9.59,6.77 2.18,20.76 3.92,23.09 1.3,1.48 11.12,-8.69 11.99,-9.75 10.9,-12.07 23.55,-7.62 18.09,4.03 3.49,-2.33 5.88,-7.2 9.38,-9.75 1.75,-1.27 4.36,-2.12 6.32,-0.85 1.3,0.64 1.96,1.91 2.17,3.39 2.84,-2.75 6.54,-5.29 9.37,-3.39 1.31,0.64 1.75,1.91 1.96,3.39 0.44,-0.64 1.09,-1.07 1.53,-1.48 1.96,-1.91 5.23,-3.6 7.85,-1.91 4.36,2.97 -0.43,10.6 -2.61,13.35 -0.43,0.42 -0.87,1.27 -1.52,2.33 10.45,-8.68 18.96,-24.57 25.5,-36.22l0.65 -0.85 9.16 -1.07 -1.75 3.18c-3.27,5.3 -19.18,31.14 -21.14,36.44 0.87,0 2.18,-0.64 2.62,-0.64 3.92,-2.33 5.23,-7.41 5.67,-11.44 0.87,-9.96 12.2,-6.36 6.09,5.51 3.49,-2.76 7.42,-9.32 9.82,-10.6l0.22 0 8.94 -0.63 -1.97 3.18c-1.52,2.11 -7.4,10.38 -8.93,13.98 3.92,-2.54 12.64,-13.56 15.69,-15.68 1.74,-1.27 4.14,-2.12 6.32,-0.85 1.53,0.64 1.96,2.12 2.18,3.6 3.27,-2.96 7.84,-6.14 10.45,-2.75 4.15,5.08 -2.83,11.22 -5.23,15.26 3.05,-2.55 7.84,-8.27 9.37,-9.75 3.27,-3.39 12.86,-10.39 17.22,-5.51l0.65 -0.85 8.94 -0.63 -1.97 3.18c-1.31,2.11 -6.75,9.96 -8.71,13.77 4.14,-2.97 12.42,-13.56 16.13,-18.21l-2.61 0 2.61 -4.66 3.05 0 3.92 -6.35 8.94 -0.64 -4.14 6.99 6.98 0c-0.21,-0.64 -0.65,-1.27 -0.65,-2.13 0,-8.05 12.64,-4.45 7.19,2.13 -1.96,2.11 -5.23,1.91 -6.53,0zm-148.88 -30.51l281.19 0 0 3.39 -281.19 0 0 -3.39zm170.46 21.18c0.65,5.72 3.26,3.81 5.45,7.42 -1.09,-0.63 -2.84,-1.06 -4.8,-1.06 12.64,2.75 14.17,10.8 26.16,8.26 -3.06,-3.6 -5.67,-7.2 -8.07,-10.81l-0.21 0.21c-4.15,-6.14 -13.74,-0.42 -18.53,-4.02zm2.83 -0.42l13.3 0.64c-3.71,-5.51 -7.42,-10.17 -13.52,-12.72l0.65 -0.63 -0.65 0c0,4.66 -1.52,8.05 0.65,12.5 0,0 -0.21,0.21 -0.43,0.21zm17.22 -11.65c2.4,4.87 3.49,9.54 -0.44,14.82 2.62,3.18 5.01,7 8.07,10.6 0,-1.49 0.22,-2.55 0.65,-3.6l-0.65 0.64c2.84,-7.41 4.15,-9.11 0.88,-12.92 -1.53,-2.12 -3.05,-3.82 -1.09,-7.42 -2.4,2.13 -2.18,7.42 -3.05,7.42 0,-4.24 -0.66,-6.57 -4.36,-9.54zm-1.31 13.35c2.84,-4.24 2.18,-8.48 0.22,-12.5 0,1.48 0.44,3.18 0.22,4.03 -0.87,-5.3 -9.81,-5.94 -14.6,-5.94 6.1,2.97 10.02,8.48 14.16,14.41zm10.03 -10.18c-1.96,4.03 1.96,5.3 3.05,8.69l6.76 -12.5c-2.62,0.43 -7.85,0.85 -9.81,4.02l0 -0.21zm11.12 -2.96l-6.1 11.01 6.97 -4.45 1.31 0.64 0 -0.85c-0.66,0 -0.87,-0.43 -1.96,-0.43 0,-1.9 0.44,-3.39 -0.22,-5.93zm-3.27 13.98c-3.05,-1.69 2.4,-3.38 4.58,-5.51 -3.27,2.76 -11.33,1.91 -11.98,18.01 7.19,1.48 11.76,-2.33 11.54,-9.96 -0.21,-2.54 -0.44,-5.29 1.96,-7.42 -4.57,0.86 -5.23,5.51 -6.1,4.87zm-8.94 13.56c-1.96,0.42 -3.7,0.85 -5.66,0.85 -18.09,-2.54 -15.91,5.29 -24.63,7.41 8.28,3.39 11.55,-2.76 16.35,-2.76 1.09,1.27 0.44,1.91 -0.87,2.33 7.19,-0.63 15.47,2.34 14.81,-7.84zm-30.73 6.78c5.66,-1.05 6.54,-5.72 13.08,-7.2 -5.67,-1.06 -11.33,-1.49 -17.44,1.27l-0.43 -1.06 -0.44 0.21c0,0.85 6.11,4.24 6.76,5.51 -0.44,0.22 -0.88,0.86 -1.53,1.27zm-3.93 -7.83c7.86,-2.96 14.39,-1.06 21.81,0 -5.23,-2.55 -6.98,-5.3 -15.26,-6.99 0.43,0.43 0.87,0.64 0.87,1.06 -4.36,1.7 -5.67,4.44 -7.42,5.93zm16.35 9.96l-12.64 3.81c8.51,-0.64 14.83,4.24 17.44,4.24 6.1,-1.7 10.68,-4.24 12.64,-9.53 -4.15,3.39 -11.77,0.63 -16.79,2.55l-0.66 -1.07zm1.96 8.69c-4.57,-1.48 -7.84,-4.03 -14.16,-3.38 6.32,1.27 1.31,4.23 -0.22,5.71l14.38 -2.33zm17.88 -13.35c-0.88,8.05 -6.76,11.87 -14.39,13.99l0 0.21 -16.13 2.76c11.12,2.33 29.86,6.77 34.88,-6.57 0.22,-0.42 0.22,1.06 0.43,2.33 0.65,-3.81 0.88,-8.05 -4.79,-12.71zm0.21 -1.9c7.19,5.51 6.76,10.59 6.1,15.04 1.96,-2.33 4.58,-4.66 3.27,-9.11l-0.21 0.21c-3.7,-2.11 -6.76,-4.45 -9.16,-6.99l0 0.85zm1.31 -1.7c2.18,2.13 4.58,4.24 7.41,5.94 -1.31,-2.34 -0.44,-5.08 1.96,-6.36 -1.74,0 -3.05,0 -3.92,-0.21 -1.53,0.63 -3.49,0.85 -5.45,0.63zm7.85 -1.69c5.45,0 16.34,-0.21 18.96,-5.3 -0.88,0.63 -1.53,0.63 -1.96,0.63 0.65,-2.54 1.08,-6.14 2.18,-9.32l-0.21 -0.64c-8.72,2.11 -12.21,10.59 -18.96,14.62zm3.05 -4.24c4.58,-4.45 8.07,-9.75 14.61,-11.65 -3.71,-0.63 -8.72,-2.55 -12.86,1.91 0,-0.21 0,-1.27 0.22,-2.33 -2.84,3.17 -0.22,7.84 -1.96,12.07zm17.44 -0.64c-1.31,3.18 -5.45,4.87 -10.03,5.51l3.49 1.27 4.36 -1.91c0.66,-0.42 1.09,-0.63 1.52,-1.27 0.22,-1.06 0.44,-2.34 0.66,-3.6zm12.87 -10.38c-2.62,-2.33 -1.53,-5.3 0.43,-7.41 4.36,1.05 2.61,8.68 -0.43,7.41zm-26.6 20.54l0 -0.42 0 1.06 0 -0.64zm20.06 -0.21l0 0.85 0 -0.85zm7.85 0.21c0,-5.29 -7.41,-3.38 -7.85,-0.21l0 -1.9 -0.22 -0.22 0.66 -7.83c3.48,2.96 7.84,5.29 13.51,7.2l1.53 -1.69c-4.8,-2.96 -10.24,-5.3 -14.38,-10.38 -1.75,-4.66 -2.4,-13.98 4.57,-13.98 -2.61,3.17 -3.27,7.83 0.88,9.74 5.44,0.64 5.66,-7.41 1.96,-9.74 1.31,-1.28 3.05,-2.76 4.79,-3.4l-1.31 -1.27c-1.31,1.7 -3.05,2.13 -4.79,3.81 -7.42,-1.48 -9.16,5.51 -8.72,11.24 -1.31,-1.7 -1.53,-4.67 -2.61,-6.78 -1.09,2.33 -6.1,2.11 -1.09,-0.85 -3.71,1.06 -2.4,3.18 -1.53,5.51 1.31,3.39 3.05,6.14 5.23,8.69 -2.83,5.71 -6.1,7.62 -6.32,8.25l-0.44 -0.21 -0.22 0.21 0.87 1.07c-5.67,-3.18 -8.28,6.35 -1.96,6.35l2.83 -1.06 0 -4.65 -0.65 -0.64 6.54 -7 -0.65 6.57c-6.1,-1.91 -6.97,7.63 -0.88,6.78 1.09,-0.21 1.97,-0.63 2.4,-1.27l0 -1.7c0.22,0.43 0.44,1.06 1.09,1.7 2.17,2.54 6.76,1.06 6.76,-2.34zm-4.36 4.24l-3.05 -1.27c0,0.21 -5.23,2.12 -1.96,5.51 3.05,2.96 8.5,-0.64 6.1,-4.24l-1.08 0zm-6.76 1.91l0.44 -1.69 0 -0.22 -3.49 -1.27 -2.83 1.27c-2.62,3.81 3.7,7.63 6.32,3.6l-0.44 -1.69zm-6.97 1.48l0 -2.97 -2.62 -1.69 -3.7 1.27c-2.84,4.03 4.13,7.63 6.32,3.39zm-10.68 -4.24c-0.44,0 -1.1,0.21 -1.31,0.42l1.31 -0.42zm3.48 4.24l0 -2.97 -2.61 -1.69 -0.86 0.42c0.21,-0.21 0.65,-0.64 0.86,-0.85l0 -1.91c0.65,2.76 4.58,4.03 6.76,1.91l0 -4.65c-2.39,-2.33 -6.1,-1.27 -6.76,1.69l0 -1.91c-0.65,-0.64 -1.74,-1.05 -2.61,-1.05 -6.54,0 -3.7,7.62 0.44,7.2l-1.75 0.43c-2.83,4.03 4.15,7.63 6.54,3.39zm-0.43 1.69l-4.58 0.64c-1.31,1.69 -0.66,6.99 5.23,3.81l0.44 -0.42 0 -3.18c-0.44,-0.21 -0.66,-0.85 -1.09,-0.85zm1.96 0.85c-2.18,3.39 2.83,4.87 3.27,4.45l2.4 -1.48 0 -2.76c-0.22,-0.42 -0.44,-0.64 -0.87,-0.85l-4.58 0.21 -0.22 0.43zm6.1 1.7c0,1.9 3.48,3.38 4.14,2.75l1.96 -1.27 0 -3.18 -0.22 -0.43 -4.57 -0.21 -1.31 2.34zm6.75 0.63l0.44 1.06 2.84 1.28c2.61,-0.22 4.13,-2.97 2.61,-4.87l-4.36 -0.64 -1.53 3.18zm-10.45 3.38c-1.75,-2.75 -6.32,-1.69 -6.32,1.49 0,1.69 1.52,3.18 3.27,3.18l2.83 -1.49 0.23 0 -0.44 -1.69 0.44 -1.49zm6.75 0c-2.62,-4.65 -8.71,1.49 -5.67,3.18l2.62 1.49 2.83 -1.49 0.22 -0.21c-0.22,-0.42 -0.22,-1.06 -0.22,-1.48 0,-0.42 0,-0.85 0.22,-1.49zm6.54 -0.42c-3.27,-3.82 -8.28,2.12 -5.45,3.82 5.89,3.38 7.2,-1.91 5.45,-3.82zm-6.32 10.59c4.58,0 4.36,-6.14 0,-6.14 -1.96,0 -3.27,1.27 -3.27,3.17l0.65 1.69 2.61 1.27zm-3.92 -1.69l0 -2.97 -2.84 -1.48c-4.57,0 -4.57,6.35 0.22,6.14l2.62 -1.69zm0.66 7.2c4.79,0 4.36,-6.57 -0.22,-6.15 -4.36,0.43 -4.14,6.15 0.22,6.15z"/>
   </g>
   <path class="fil6" d="M501.07 492.09c2.4,-0.85 4.8,-2.34 6.54,-4.03 0.43,-0.64 2.39,-2.75 2.18,-3.81 -1.09,-0.21 -4.58,2.76 -5.23,3.18 -1.53,1.49 -2.61,2.96 -3.49,4.66zm187.46 -6.99c-3.26,-3.6 -13.08,10.59 -13.08,15.04 0,5.3 17,-9.96 13.08,-15.04zm-306.91 15.04c0,5.3 17.23,-9.96 12.86,-15.04 -3.05,-3.6 -12.86,10.59 -12.86,15.04zm23.32 -4.02c1.97,0.21 3.49,1.91 2.4,4.45 1.09,-0.86 2.4,-2.54 2.84,-3.18 1.75,-2.55 2.62,-5.93 2.62,-9.32 -2.4,2.75 -4.8,5.72 -7.85,8.05zm262.88 1.91c-4.58,4.45 -12.86,11.22 -17.44,5.72 -0.66,-1.07 -1.31,-2.54 -1.31,-4.24 -0.22,-2.97 1.31,-6.15 3.27,-8.48 0.66,-0.63 2.83,-2.96 4.36,-4.87 -5.89,4.03 -17,18.01 -19.4,19.06l-0.22 0 -10.46 0.85 2.4 -3.39c1.96,-2.54 11.55,-14.19 13.51,-18 -5.23,2.33 -23.32,28.38 -32.04,19.28 -1.96,-1.91 -2.17,-4.24 -1.52,-6.57 -2.61,1.69 -5.45,2.75 -9.15,2.32 -14.4,11.44 -28.34,4.88 -15.92,-10.38 0.66,-0.42 1.97,-2.54 2.83,-3.81 -0.43,0.22 -0.86,0.43 -0.86,0.64 -3.71,2.54 -6.76,5.93 -10.03,9.11 -4.14,4.03 -14.39,15.26 -20.49,8.69 -1.74,-1.49 -1.96,-3.61 -1.74,-5.72 -5.02,4.87 -12.86,10.59 -16.79,5.51 -1.09,-1.28 -1.52,-2.54 -1.74,-4.24 0,-2.97 1.74,-6.15 3.49,-8.48 0.44,-0.63 2.4,-2.54 3.92,-4.44 -5.67,4.44 -15.91,15.47 -18.1,18.01l-0.43 0.63 -11.34 0.85 2.83 -3.39c1.96,-2.54 11.33,-13.98 13.3,-18 -5.67,2.75 -25.07,30.72 -35.97,18.22 -1.52,-1.49 -2.18,-3.18 -2.62,-5.09 -4.79,4.87 -12.86,11.65 -18.09,5.73 -3.7,-4.24 -1.75,-6.15 -0.87,-8.9 -1.74,0.2 -3.49,0.42 -4.8,-0.43l-7.19 10.81 -10.25 1.06 4.15 -5.93c-3.92,3.6 -10.47,8.9 -14.39,3.6 -5.88,-7.63 4.57,-14.83 7.41,-18.86 -5.01,3.18 -16.79,18.22 -20.27,20.13l-0.44 0.21 -9.81 0.85 6.11 -8.26 -7.42 6.15 -0.21 0.22c-4.58,2.54 -14.83,3.17 -14.83,-4.03 0,-0.43 0,-0.84 0.22,-1.06 -1.53,0.43 -3.49,0.85 -5.45,0.63 -4.14,3.82 -11.33,8.9 -16.79,4.88 -2.82,-2.12 -3.69,-5.51 -3.48,-8.69 -1.75,-0.42 -2.4,-2.54 -0.44,-4.44 4.8,-5.3 19.18,-17.16 26.37,-9.32 3.06,3.6 1.31,8.48 -1.09,12.07l14.61 -13.13c0.43,-1.07 1.08,-2.12 1.96,-2.76 5.01,-4.66 10.46,3.19 3.71,5.73 -0.22,0.21 -0.44,0.21 -0.65,0.42 -0.65,1.06 0.65,5.73 1.08,9.75 5.45,-5.08 10.47,-10.16 15.04,-15.89 5.67,-7.2 10.47,-15.04 15.26,-22.46l0.44 -0.85 10.68 -1.27 -19.18 28.81c2.61,-1.91 7.19,-4.02 10.03,-1.69 4.14,3.59 -0.44,10.8 -2.84,13.97 -0.65,0.86 -3.05,3.82 -4.14,5.73 2.19,-1.49 6.11,-4.67 6.98,-5.73 13.95,-12.49 21.14,-23.93 31.38,-38.98l0.44 -0.85 10.68 -1.27 -23.54 34.53c0.43,0 0.87,0 1.31,0.21 2.4,0.64 2.83,-1.06 4.57,-2.54 14.39,-15.47 19.84,2.96 10.9,2.96 -3.05,0 -3.27,-1.27 -3.92,-2.54 -0.44,0.42 -0.44,0.85 -1.1,1.69 -1.08,1.69 -2.39,2.96 -4.13,4.03 1.52,1.48 1.96,3.38 1.52,5.72 -0.21,0.85 -0.65,2.12 -1.08,2.97 5.45,-2.33 17.66,-20.98 31.17,-20.98 2.39,0 5.01,1.07 6.1,3.18 4.14,8.04 -10.9,13.14 -17.44,14.83 -0.65,7.84 8.28,0.42 11.12,-1.91 4.14,-3.81 18.08,-21.39 24.63,-14.39 1.09,1.27 1.52,2.75 1.52,4.24 4.15,-3.6 10.91,-8.27 14.39,-4.24 5.23,5.92 -6.1,15.25 -8.07,19.49 4.36,-2.33 20.71,-18.44 22.89,-21.39l1.75 -2.13 -3.93 0 3.05 -4.87 4.57 0 5.24 -7.62 10.46 -0.64 -5.67 8.26 9.81 0 -2.84 4.87 -10.45 0c-3.27,4.24 -14.83,19.92 -16.35,23.73 0.86,-0.42 1.96,-0.85 2.17,-1.06 3.71,-2.33 7.41,-6.15 10.25,-9.33 3.92,-4.02 14.38,-15.46 20.26,-9.31 5.67,6.14 -6.54,16.52 -6.97,19.7l0.22 0c7.63,0 13.74,-8.9 14.39,-15.46 0.87,-10.39 16.13,-7 4.14,8.47 4.8,-2.75 10.02,-9.32 14.17,-13.13l0.44 -0.43 10.9 -0.64 -13.95 20.77c0.65,-0.21 1.31,-0.64 1.75,-0.64 7.63,-5.3 12.42,-13.56 20.49,-18.64 2.61,-1.49 5.89,-2.55 8.51,-0.64 1.74,1.27 2.17,3.18 1.96,4.87 4.36,-3.6 10.9,-8.27 14.6,-4.24 5.23,5.92 -6.32,15.67 -8.07,19.49 5.24,-1.48 18.31,-21.39 31.17,-21.39 17.44,0 2.83,26.48 -11.56,26.48 -5.23,0 -7.4,-4.03 -7.62,-8.05zm-32.91 -25.85c-2.84,2.97 -8.28,1.91 -8.28,-2.54 0,-9.11 15.26,-4.66 8.28,2.54zm-290.12 1.91c1.75,2.12 2.83,4.66 2.83,7.42 0,19.7 -33.78,17.58 -33.78,10.59 0,-4.24 7.63,-1.28 9.81,-0.85 5.01,0.85 9.81,0.42 13.95,-2.33 2.62,-2.12 4.58,-5.3 4.14,-8.48 -0.87,-4.87 -8.07,-5.93 -12.42,-5.93 -24.85,0 -31.17,26.49 -0.66,26.49 34.22,0 33.79,-29.45 56.67,-44.92l0 -0.21 4.36 -1.69c-13.3,-1.06 -27.68,-3.17 -39.23,2.33 -18.31,9.11 2.18,22.45 20.05,3.6 0.87,-0.85 1.31,-1.7 1.96,-2.33 1.74,-1.91 5.23,-4.24 5.23,0 0,2.54 -4.36,8.05 -6.32,9.96 -5.01,5.08 -11.34,8.05 -18.52,8.05 -3.05,0 -5.89,-0.63 -8.07,-1.69zm-4.15 -3.18c-6.53,-7.84 0.44,-22.67 25.94,-23.52l44.25 -1.49c1.31,0 3.48,0.22 3.92,1.91 1.52,5.08 -12.86,6.78 -16.13,6.78 -0.87,0 -1.96,0 -2.83,-0.21 0,1.27 -0.87,1.9 -1.97,2.33 -15.69,8.47 -16.35,34.1 -41.63,44.92 -14.82,6.35 -50.35,9.95 -50.35,-13.78 0,-18.22 26.15,-23.73 38.79,-16.95z"/>
   <g>
    <path class="fil5" d="M359.94 406.33c2.02,-1.52 4.29,-3.31 3.7,-4.7 -0.51,0.26 -1.75,1.76 -2,2 -0.75,0.75 -1.49,1.73 -1.71,2.7zm-20.31 -1.8c-1.64,-1.35 -2.68,-0.82 -5.5,0.51l-0.25 0.01 5.75 -0.53zm-1.8 6.01l-12.04 0.86c-7.14,9.14 5.91,17.97 11.13,1.8l0.91 -2.65zm-11.89 -6.5c-1.58,-0.17 -2.9,-0.33 -4.5,-0.73l-0.53 0.03 -8.42 -5.49 6.29 -0.32c4.72,-0.24 1.62,0.86 8.19,1 4.24,0.49 7.87,-0.41 11.15,-2.95 8.87,-6.38 0.48,-11.17 -7.64,-10.75 -18.07,0.93 -26.9,18.46 -6.81,20.99 0.76,-0.51 1.51,-1.27 2.27,-1.77zm46.3 -39.38c-8.4,-0.04 -16.77,0.62 -23.42,4.04 -15.6,8.16 1.9,16.51 17.67,1.23l5.76 -5.27zm-27.09 19.65c0.82,0.67 1.41,1.83 1.74,3.23 0.99,3.98 -0.65,7.86 -3.64,10.87 2.12,0.37 4,1.21 5.4,2.8 13.23,-8.27 17.33,-25.56 31.02,-35.27l0.26 -0.01 2.04 -1.05c-2.63,-0.11 -5.53,-0.2 -8.41,-0.28l0.18 3.54c0.11,2.13 -3.83,7.08 -5.31,9.05 -4.52,4.27 -10.41,7.17 -16.7,7.5 -2.61,0.13 -4.72,0.01 -6.58,-0.38zm5.37 57.71c-6.01,6 -11.54,10.11 -13.84,7.96l-1.1 -0.89 5.02 -9.98 8.37 -26.29c-1.86,-0.37 -3.49,-1.48 -4.88,-2.83 0.79,10.16 -12.89,25.1 -22.81,16.11 -4.41,-4.05 -4.47,-10.45 -1.83,-15.33 -22.87,-5.47 -16.55,-30.94 9.65,-32.28 3.4,-0.17 6.58,0.37 9.78,1.39 -4.28,-6.89 1.68,-18.59 23.92,-20.2l39.75 -3.46c1.56,-0.08 3.68,0.04 4.3,1.91 1.53,4.42 -11.23,6.5 -14.63,6.68l-2.36 0.12c0.07,1.42 -0.73,1.22 -1.75,1.75 -0.5,0.5 -1.27,0.78 -2.02,1.52 -7.86,5.63 -12.4,19.62 -20.61,28.58 5.6,1.61 5.35,12.06 -7.6,15.81 -0.37,1.83 -0.78,3.63 -1.25,5.43l-5.53 3.62 -2.84 19.14c0,0 0.88,0.49 2.27,1.21z"/>
    <path class="fil6" d="M357.25 398.21c-4.6,2.95 -6.53,9.16 -8.27,14.61l-8.37 26.29 -5.02 9.98 1.1 0.89c5.79,5.39 43.27,-32.85 46.45,-37.27 1.49,-1.73 10.47,-11.86 12.84,-11.74 6.72,2.97 9.24,-4.27 5.92,-7.66 -3.83,-2.9 -9.14,1.18 -11.37,3.66 -8.03,8.04 -30.15,29.23 -38.26,33.95 2.58,-6.07 4.37,-12.08 5.62,-18.31 12.95,-3.75 13.2,-14.2 7.6,-15.81 -0.44,-0.11 -3.65,-1.54 -8.24,1.41zm2.69 8.12c0.22,-0.97 0.95,-1.95 1.71,-2.7 0.24,-0.25 1.49,-1.74 2,-2 0.59,1.39 -1.68,3.18 -3.7,4.7z"/>
    <path class="fil6" d="M334.13 405.05l0 0zm2.79 8.15c-5.21,16.17 -18.27,7.35 -11.13,-1.8 3.09,-4.11 7.45,-6.01 8.34,-6.36 2.83,-1.33 3.86,-1.86 5.5,-0.51l-1.8 6.02 -0.91 2.65zm-17.46 -2.42c-2.64,4.88 -2.57,11.28 1.83,15.33 9.92,8.98 23.6,-5.95 22.81,-16.11 1.39,1.35 3.02,2.46 4.88,2.82 0.87,-2.72 1.78,-5.63 3.05,-8.23 0,0 -1.65,-0.92 -3.38,-3.38 -1.4,-1.59 -3.28,-2.43 -5.4,-2.8 0,0 -7.67,-2.16 -17.31,5.64 -0.76,0.51 -1.51,1.27 -2.27,1.77 0,0 -2.48,2.09 -4.21,4.96z"/>
   </g>
  </g>
 </g>
</svg>
